<?xml version="1.0" standalone="no"?>
<!DOCTYPE svg PUBLIC "-//W3C//DTD SVG 20010904//EN"
 "http://www.w3.org/TR/2001/REC-SVG-20010904/DTD/svg10.dtd">
<svg version="1.0" xmlns="http://www.w3.org/2000/svg"
 width="900.000000pt" height="963.000000pt" viewBox="0 0 900.000000 963.000000"
 preserveAspectRatio="xMidYMid meet">
<metadata>
Created by potrace 1.10, written by Peter Selinger 2001-2011
</metadata>
<g transform="translate(0.000000,963.000000) scale(0.100000,-0.100000)"
fill="#000000" stroke="none">
<path d="M2062 9523 c-2 -60 -3 -119 -4 -133 -1 -49 12 -396 18 -443 3 -29 0
-54 -6 -62 -12 -15 3 -123 22 -158 7 -14 5 -23 -6 -36 -13 -14 -15 -33 -11
-97 3 -43 7 -272 10 -508 2 -290 7 -432 14 -439 14 -14 14 -50 1 -63 -6 -6 -7
-60 -1 -154 5 -83 5 -168 0 -199 -6 -40 -5 -60 6 -80 11 -21 11 -50 4 -141 -5
-62 -7 -116 -4 -118 3 -3 -2 -13 -11 -23 -14 -16 -14 -20 0 -48 13 -25 14 -34
4 -50 -10 -16 -9 -23 5 -39 24 -26 21 -40 -13 -72 -30 -28 -33 -67 -4 -56 11
4 14 -7 14 -49 0 -29 4 -57 10 -60 5 -3 7 -19 3 -35 -3 -17 0 -36 6 -44 7 -9
8 -30 3 -62 -7 -47 -8 -254 -3 -576 2 -81 1 -151 -2 -155 -3 -5 -2 -28 4 -51
6 -26 6 -58 0 -84 -7 -28 -5 -67 4 -127 10 -59 11 -97 5 -121 -10 -38 -11 -75
-5 -225 5 -109 6 -173 5 -207 -1 -13 1 -53 4 -90 3 -37 1 -70 -3 -73 -5 -2 -6
-35 -4 -72 9 -140 9 -198 1 -210 -10 -13 0 -63 12 -63 5 0 12 -25 15 -55 6
-43 4 -61 -9 -80 -9 -13 -16 -31 -16 -40 0 -18 -31 -20 -48 -3 -8 8 -15 9 -20
3 -18 -25 -75 -47 -111 -42 -23 3 -44 -1 -56 -9 -10 -8 -35 -14 -56 -14 -20 0
-42 -7 -49 -15 -7 -8 -20 -15 -30 -15 -9 0 -25 -9 -35 -20 -10 -11 -24 -20
-31 -20 -8 0 -21 -14 -30 -31 -13 -27 -20 -30 -45 -25 -19 4 -29 1 -29 -7 -1
-17 -100 -77 -127 -77 -12 0 -28 -8 -35 -17 -7 -10 -39 -35 -70 -56 -121 -82
-308 -269 -308 -309 0 -9 -13 -26 -28 -36 -28 -20 -34 -30 -67 -107 -10 -22
-30 -56 -45 -75 -15 -19 -31 -46 -35 -58 -4 -13 -20 -50 -36 -82 -16 -32 -34
-80 -41 -106 -6 -27 -18 -56 -25 -65 -7 -8 -13 -27 -13 -40 0 -14 -4 -29 -9
-35 -13 -13 -25 -94 -13 -94 5 0 15 19 22 43 7 23 17 46 22 51 4 6 8 22 8 37
0 15 4 30 9 33 13 8 51 89 51 109 0 9 5 19 11 22 6 4 26 41 46 83 30 64 94
173 113 192 3 3 23 32 45 65 22 33 45 65 50 71 6 6 35 41 65 78 29 36 57 66
62 66 4 0 24 16 44 35 53 51 237 169 359 230 28 13 64 39 80 56 36 38 98 68
140 69 17 0 40 7 53 15 22 16 125 34 245 42 l67 5 1 166 c1 164 -4 790 -6 907
-1 33 -5 323 -10 645 -4 322 -11 839 -15 1150 -19 1493 -22 1696 -27 1704 -3
4 -5 70 -4 145 1 75 -1 295 -5 489 l-7 352 -46 0 -47 0 -2 -107z"/>
<path d="M2605 9503 c11 -277 25 -1193 30 -2058 3 -500 10 -1036 15 -1190 5
-154 9 -644 10 -1090 0 -784 4 -945 21 -945 22 0 29 50 27 180 -1 30 -1 78 0
105 1 28 1 73 0 100 -1 28 -1 138 0 245 1 271 1 335 -2 410 -1 36 1 76 5 90 3
14 2 36 -2 48 -5 13 -5 59 0 105 5 45 6 86 1 92 -4 5 -4 48 -1 94 4 46 3 120
-1 165 -4 44 -5 99 -1 121 4 22 8 110 9 195 1 85 2 173 3 194 1 22 -3 44 -9
50 -15 15 -12 52 5 66 19 16 19 45 -1 75 -12 18 -14 37 -10 72 14 108 16 235
5 271 -7 25 -8 50 -2 73 5 19 6 95 3 169 -4 74 -3 140 2 146 4 6 5 14 1 17 -3
4 -7 138 -9 299 -2 161 -6 312 -9 336 -4 27 -2 48 5 57 8 9 9 25 5 42 -8 32
-14 279 -20 818 -3 209 -5 389 -5 400 -1 24 -2 272 -1 333 l0 42 -40 0 -40 0
6 -127z"/>
<path d="M7737 9342 c2 -363 1 -352 11 -352 5 0 9 134 11 298 1 163 4 307 8
320 4 17 1 22 -13 22 -18 0 -19 -13 -17 -288z"/>
<path d="M7795 9551 c0 -44 4 -83 8 -87 4 -4 7 32 7 79 0 48 -3 87 -7 87 -5 0
-8 -36 -8 -79z"/>
<path d="M7873 8862 c-1 -422 -2 -792 -1 -822 1 -55 1 -339 1 -750 0 -118 0
-251 0 -295 0 -99 0 -331 -1 -365 0 -14 0 -101 0 -195 1 -93 1 -190 1 -215 0
-25 0 -223 0 -440 0 -217 0 -408 0 -425 0 -16 -1 -451 -3 -965 -4 -961 -3
-980 34 -980 9 0 15 20 20 61 3 34 6 1434 6 3110 l0 3049 -27 0 -28 0 -2 -768z"/>
<path d="M7797 9333 c-11 -10 -8 -61 3 -68 6 -4 10 10 10 34 0 42 -2 46 -13
34z"/>
<path d="M7795 9110 c-3 -11 -2 -28 4 -37 8 -15 10 -11 11 20 0 41 -5 47 -15
17z"/>
<path d="M4530 9101 c0 -16 50 -41 78 -39 15 1 33 -1 40 -6 7 -4 12 -1 12 8 0
9 -5 16 -11 16 -6 0 -17 7 -25 15 -16 16 -94 21 -94 6z"/>
<path d="M4743 9103 c-6 -5 -13 -22 -15 -38 -2 -22 -9 -31 -24 -33 -17 -2 -23
-12 -28 -46 -7 -42 -39 -86 -53 -72 -4 3 -9 25 -12 49 -4 30 -11 43 -25 45
-10 2 -22 -2 -26 -8 -6 -9 -33 -12 -89 -11 -45 1 -81 -1 -81 -4 0 -4 12 -22
26 -41 32 -41 64 -46 64 -9 0 22 4 25 35 25 30 0 37 -5 55 -40 11 -21 20 -53
20 -70 0 -39 10 -38 39 5 13 19 32 35 42 35 12 0 21 10 25 26 5 21 11 25 31
19 19 -4 29 -1 40 15 16 23 41 26 57 6 6 -8 28 -17 49 -20 31 -6 41 -3 60 18
22 24 26 25 88 15 35 -5 82 -12 104 -15 57 -8 102 -26 165 -68 37 -25 66 -36
91 -36 37 0 118 -37 155 -71 11 -10 27 -19 36 -19 9 0 21 -13 28 -30 14 -35
30 -39 30 -9 0 28 36 17 72 -21 35 -37 65 -53 73 -39 4 5 -1 19 -10 29 -17 19
-17 65 0 65 6 0 11 -13 13 -28 4 -34 23 -31 37 7 10 30 -7 51 -34 41 -26 -10
-80 7 -112 36 -18 16 -38 29 -45 29 -6 0 -14 7 -18 15 -3 8 -16 15 -29 15 -14
0 -30 7 -37 15 -7 8 -21 15 -31 15 -10 0 -20 4 -24 9 -3 5 -20 12 -38 16 -17
4 -56 20 -84 36 -29 16 -59 29 -66 29 -7 0 -18 5 -25 12 -14 14 -70 34 -147
52 -54 13 -88 18 -194 31 -18 2 -42 7 -52 10 -33 11 -24 -40 12 -68 40 -31 31
-47 -25 -47 l-43 0 -15 63 c-11 47 -19 63 -34 65 -10 1 -24 -1 -31 -5z"/>
<path d="M4480 9072 c0 -5 -11 -14 -25 -20 -34 -16 -32 -32 4 -32 20 0 35 8
45 22 21 30 20 38 -4 38 -11 0 -20 -4 -20 -8z"/>
<path d="M4342 9033 c4 -21 33 -25 33 -3 0 8 -8 16 -18 18 -14 3 -18 -1 -15
-15z"/>
<path d="M7799 8993 c-5 -91 -3 -203 4 -203 4 0 7 52 7 115 0 63 -2 115 -5
115 -3 0 -6 -12 -6 -27z"/>
<path d="M4166 8999 c-22 -5 -47 -16 -56 -24 -9 -8 -25 -15 -35 -15 -26 0
-108 -31 -117 -44 -30 -42 52 -25 164 35 10 5 36 9 58 9 36 0 40 2 40 25 0 14
-3 25 -7 24 -5 -1 -26 -5 -47 -10z"/>
<path d="M7737 8953 c-11 -10 -8 -103 3 -103 6 0 10 6 11 13 0 6 2 31 4 55 3
39 -3 51 -18 35z"/>
<path d="M4247 8923 c-4 -3 0 -14 9 -24 33 -36 -8 -46 -48 -11 -20 17 -48 10
-48 -13 0 -19 -14 -19 -30 0 -20 24 -38 18 -33 -10 5 -22 1 -25 -36 -31 -25
-4 -40 -11 -38 -18 34 -88 50 -157 39 -168 -16 -16 -25 -4 -24 31 0 21 -5 30
-20 35 -30 7 -38 -1 -38 -40 0 -22 -6 -37 -15 -40 -31 -12 -10 -104 24 -104
11 0 22 8 25 18 4 10 24 29 46 41 24 14 40 30 40 41 0 10 5 22 10 25 15 9 12
37 -6 74 -13 25 -13 37 -4 66 14 41 23 44 38 10 6 -14 19 -25 27 -25 26 0 40
-44 21 -71 -15 -24 -17 -91 -3 -105 4 -4 8 -2 8 4 1 7 3 17 4 22 1 6 3 20 4
33 l1 22 18 -23 c10 -13 21 -20 25 -16 13 14 7 63 -9 72 -27 15 -6 34 29 27
57 -12 65 -15 70 -36 3 -12 10 -18 17 -14 6 4 8 16 4 28 -5 15 0 26 20 42 l27
21 -21 26 c-27 35 -25 46 6 59 l27 10 -23 24 c-20 21 -33 25 -80 25 -31 0 -60
-3 -63 -7z m-35 -80 c10 -9 18 -20 18 -25 0 -13 -37 9 -44 27 -7 20 3 19 26
-2z"/>
<path d="M4493 8884 c-3 -8 -1 -26 6 -40 14 -32 14 -34 -3 -34 -22 0 -27 -14
-13 -44 15 -32 31 -33 51 -4 21 30 20 66 -4 106 -22 36 -28 39 -37 16z"/>
<path d="M3891 8801 c-7 -12 -22 -21 -34 -21 -12 -1 -34 -11 -49 -23 l-27 -22
17 -48 c11 -32 23 -47 34 -47 11 0 18 -8 18 -20 0 -11 -7 -20 -15 -20 -20 0
-19 -6 6 -46 15 -25 18 -38 10 -52 -7 -12 -6 -26 2 -42 14 -27 19 -27 50 4
l23 23 -22 26 c-19 23 -22 36 -20 96 2 39 8 76 14 84 9 10 9 22 0 45 -16 41
-5 50 33 28 26 -15 33 -16 40 -5 17 27 3 47 -38 55 -25 5 -33 2 -42 -15z"/>
<path d="M7722 8783 c4 -39 28 -42 28 -4 0 21 -5 31 -16 31 -11 0 -14 -8 -12
-27z"/>
<path d="M3642 8757 c-12 -13 -22 -32 -22 -43 0 -15 6 -12 30 16 16 19 30 38
30 43 0 14 -17 7 -38 -16z"/>
<path d="M5888 8663 c-33 -17 -35 -32 -8 -66 11 -14 20 -29 20 -34 0 -4 14
-21 30 -37 33 -32 36 -46 18 -76 -10 -16 -10 -23 4 -37 17 -16 19 -16 41 5 13
12 31 22 40 22 10 0 21 10 26 23 5 12 18 31 30 41 20 18 20 20 5 38 -21 23
-79 25 -70 3 7 -20 -3 -45 -20 -45 -7 0 -17 12 -20 27 -4 14 -17 45 -30 67
-13 23 -24 51 -24 64 0 25 -4 26 -42 5z"/>
<path d="M3550 8618 c-25 -27 -53 -57 -62 -66 -21 -19 -23 -32 -7 -32 23 0
136 134 121 144 -4 2 -28 -18 -52 -46z"/>
<path d="M7724 8644 c3 -9 6 -27 6 -40 0 -27 15 -32 24 -8 9 24 -4 64 -21 64
-10 0 -13 -6 -9 -16z"/>
<path d="M3725 8626 c-16 -6 -36 -17 -43 -23 -7 -7 -18 -13 -23 -13 -5 0 -9
-11 -9 -24 0 -19 6 -25 26 -28 24 -3 26 -6 30 -78 3 -41 8 -100 12 -130 7 -53
8 -55 37 -55 25 0 30 4 27 23 -2 21 1 23 28 17 36 -8 38 1 10 55 -55 109 -68
204 -28 219 l21 8 -21 21 c-24 24 -25 24 -67 8z"/>
<path d="M7798 8595 c-2 -19 0 -41 4 -48 4 -7 8 9 8 36 0 55 -6 62 -12 12z"/>
<path d="M4050 8560 c0 -5 9 -10 20 -10 11 0 20 5 20 10 0 6 -9 10 -20 10 -11
0 -20 -4 -20 -10z"/>
<path d="M5505 8541 c-8 -15 3 -31 21 -31 9 0 14 7 12 17 -4 20 -24 28 -33 14z"/>
<path d="M5585 8531 c-3 -5 3 -12 14 -16 11 -3 22 -12 25 -20 3 -9 18 -15 36
-15 16 0 30 -4 30 -10 0 -5 8 -10 18 -10 15 1 15 2 1 13 -9 7 -18 18 -20 26
-3 7 -23 19 -44 27 -48 16 -52 17 -60 5z"/>
<path d="M7730 8525 c0 -9 5 -15 11 -13 6 2 11 8 11 13 0 5 -5 11 -11 13 -6 2
-11 -4 -11 -13z"/>
<path d="M3586 8494 c-4 -19 -10 -42 -13 -51 -4 -11 0 -14 18 -11 21 3 24 9
27 51 2 36 0 47 -11 47 -9 0 -17 -14 -21 -36z"/>
<path d="M6120 8486 c0 -25 12 -46 26 -46 17 0 18 32 2 48 -16 16 -28 15 -28
-2z"/>
<path d="M3450 8455 c0 -18 -9 -44 -21 -59 -27 -34 -34 -151 -10 -151 12 0 14
14 12 61 -3 71 12 94 61 94 16 0 28 3 26 8 -3 4 -10 21 -17 38 -7 18 -21 34
-32 37 -16 4 -19 0 -19 -28z"/>
<path d="M7726 8454 c-6 -22 -7 -199 -6 -641 0 -67 3 -83 15 -83 14 0 22 22
24 70 7 149 -3 340 -19 350 -9 6 -9 20 1 66 17 76 19 264 3 264 -7 0 -15 -12
-18 -26z"/>
<path d="M5625 8439 c4 -5 17 -15 28 -20 24 -11 41 -21 104 -62 32 -20 55 -27
92 -27 55 0 74 -16 45 -37 -15 -11 -16 -15 -5 -22 17 -11 5 -32 -14 -24 -23 8
-65 -6 -65 -22 0 -8 11 -17 25 -21 15 -4 25 -13 25 -24 0 -28 11 -50 24 -50
16 0 96 123 96 147 0 10 -5 24 -12 31 -20 20 16 15 42 -6 22 -18 24 -18 71 7
38 21 52 24 66 15 27 -17 28 -45 2 -65 -22 -17 -23 -19 -4 -18 11 0 29 6 39
14 11 8 30 15 42 15 32 0 83 -31 90 -55 4 -11 13 -28 22 -38 8 -9 12 -20 8
-25 -4 -4 -14 1 -21 12 -13 17 -15 16 -44 -13 -38 -39 -71 -42 -71 -6 0 17 8
29 25 37 32 14 32 24 0 32 -30 8 -45 1 -45 -19 0 -14 -67 -38 -81 -29 -12 7
-60 -18 -56 -30 6 -18 46 -19 53 -2 8 20 34 21 34 2 0 -31 37 -60 79 -62 22
-1 41 2 41 7 0 5 9 9 21 9 11 0 29 10 38 22 20 24 41 17 41 -13 0 -12 -7 -19
-20 -19 -27 0 -25 -8 6 -37 20 -19 33 -23 55 -18 l30 7 -7 -44 c-4 -23 -13
-50 -20 -59 -18 -20 -18 -24 3 -55 19 -29 33 -17 33 29 0 23 7 31 36 43 47 20
53 11 56 -73 2 -97 2 -98 13 -105 6 -4 22 -8 38 -8 23 0 27 4 27 27 0 21 -3
24 -12 15 -7 -7 -20 -12 -31 -12 -14 0 -17 5 -12 23 4 12 9 30 12 40 4 17 6
17 22 3 10 -9 21 -13 24 -9 12 11 8 21 -12 26 -13 3 -22 21 -31 56 -6 28 -16
54 -21 57 -6 3 -22 24 -36 47 -14 23 -44 63 -65 88 -21 25 -38 50 -38 55 0 12
-41 65 -87 112 -18 19 -33 39 -33 46 0 7 -9 22 -20 34 -17 17 -32 22 -75 22
-30 0 -56 -4 -59 -9 -3 -5 -23 -7 -45 -4 -23 3 -41 1 -45 -6 -17 -27 -106 5
-106 38 0 6 -7 11 -15 11 -19 0 -33 -32 -17 -38 7 -2 12 -8 12 -12 0 -5 -16 0
-35 11 -30 18 -40 19 -63 10 -30 -13 -82 -1 -82 19 0 5 -11 10 -25 10 -14 0
-28 7 -31 15 -4 9 -19 15 -36 15 -18 0 -27 -4 -23 -11z m610 -89 c8 -13 -20
-24 -42 -16 -15 6 -15 8 -3 16 20 13 37 12 45 0z"/>
<path d="M7795 8380 c-3 -5 -1 -18 4 -27 9 -16 10 -14 11 10 0 28 -5 34 -15
17z"/>
<path d="M3552 8370 c-20 -9 -22 -15 -19 -64 3 -29 8 -59 12 -65 4 -7 1 -26
-5 -42 -11 -25 -10 -32 4 -48 15 -17 16 -28 8 -82 -8 -53 -7 -67 7 -86 9 -12
24 -23 33 -23 29 0 48 -12 48 -30 0 -9 9 -25 20 -35 17 -16 19 -28 15 -110 -3
-79 -8 -102 -34 -152 -16 -32 -39 -64 -50 -71 -12 -7 -21 -22 -21 -35 0 -12
-7 -35 -15 -51 -22 -42 -18 -63 17 -95 29 -26 31 -31 20 -55 -13 -30 -2 -34
28 -9 11 10 20 30 20 45 0 14 7 34 16 43 9 9 20 30 23 47 9 45 31 48 31 5 0
-40 -36 -126 -74 -176 -35 -47 -60 -135 -57 -204 2 -45 -2 -63 -18 -83 l-21
-27 0 37 c0 32 -3 36 -25 36 -31 0 -32 -21 -5 -78 11 -22 20 -46 20 -52 0 -7
7 -24 16 -40 20 -33 13 -60 -16 -60 -11 0 -20 -5 -20 -11 0 -7 -14 -35 -32
-63 -27 -43 -32 -63 -36 -131 -4 -69 -1 -87 17 -120 11 -22 21 -51 21 -65 0
-14 5 -31 12 -38 18 -18 1 -27 -27 -14 -16 8 -25 20 -25 35 0 13 -7 32 -15 43
-8 10 -15 36 -15 57 0 20 -4 37 -10 37 -12 0 -13 -77 -1 -84 4 -3 11 -30 14
-59 3 -30 10 -63 16 -73 5 -11 16 -39 23 -64 7 -25 20 -46 29 -48 19 -3 39 37
39 78 0 34 12 44 41 35 19 -6 21 -12 15 -54 -17 -129 -23 -151 -49 -175 -15
-14 -27 -29 -27 -34 0 -17 26 -40 86 -75 l61 -36 0 -61 c0 -43 4 -64 15 -73 9
-6 18 -30 21 -52 6 -45 24 -132 33 -155 4 -13 6 -13 14 0 16 25 11 68 -9 87
-10 10 -21 38 -24 63 -5 43 -10 73 -37 215 -7 33 -16 98 -20 145 -5 47 -16
148 -25 225 -26 224 -28 258 -15 331 7 38 16 107 20 154 14 159 31 245 61 320
17 41 37 91 45 110 19 49 29 202 15 228 -8 15 -8 21 0 24 10 3 11 19 8 103 0
11 4 43 9 70 6 28 16 84 22 125 7 41 19 85 27 97 12 18 12 25 1 42 -7 12 -21
21 -32 21 -30 0 -96 22 -96 32 0 5 4 17 9 27 7 12 5 39 -5 82 -9 35 -15 81
-14 102 1 39 -17 81 -58 135 -27 35 -27 35 -60 22z m28 -101 c0 -11 -4 -17
-10 -14 -5 3 -10 13 -10 21 0 8 5 14 10 14 6 0 10 -9 10 -21z m132 -665 c8 -7
-35 -87 -50 -92 -18 -6 -15 38 3 44 8 4 15 14 15 23 0 26 18 40 32 25z m-138
-847 c14 -22 -4 -52 -30 -52 -23 0 -31 39 -13 61 14 17 28 14 43 -9z"/>
<path d="M7797 8183 c-3 -32 -2 -62 3 -67 7 -7 10 15 10 57 0 37 -2 67 -4 67
-2 0 -6 -26 -9 -57z"/>
<path d="M3374 8206 c-6 -26 1 -46 16 -46 12 0 22 34 14 54 -9 23 -23 20 -30
-8z"/>
<path d="M6023 8217 c-7 -7 -30 -25 -52 -42 -22 -16 -40 -35 -41 -42 0 -24 19
-23 46 2 15 14 33 25 40 25 15 0 34 31 34 54 0 19 -10 20 -27 3z"/>
<path d="M3430 8125 c-22 -23 -23 -28 -12 -59 7 -19 12 -38 10 -43 -4 -16 13
-53 23 -48 5 4 9 23 9 43 0 20 4 53 10 72 7 26 7 38 -3 47 -11 11 -17 9 -37
-12z"/>
<path d="M5666 8113 c-3 -3 -3 -10 0 -14 7 -12 34 -11 34 0 0 11 -26 22 -34
14z"/>
<path d="M5883 8074 c-24 -14 -43 -29 -43 -35 0 -15 80 -11 86 5 3 8 17 17 32
21 26 6 26 7 8 21 -27 19 -34 18 -83 -12z"/>
<path d="M5720 8050 c0 -5 12 -10 28 -10 21 0 24 2 12 10 -20 13 -40 13 -40 0z"/>
<path d="M7796 8051 c-4 -5 -2 -20 3 -33 9 -21 10 -21 10 10 1 32 -3 39 -13
23z"/>
<path d="M6130 8011 c-6 -12 -16 -21 -23 -21 -14 0 -41 -39 -33 -47 3 -3 12 0
21 7 22 18 44 5 64 -40 l18 -40 21 23 c12 13 22 33 22 45 0 12 9 26 20 32 11
6 20 15 20 20 0 16 -30 11 -36 -5 -4 -8 -15 -15 -26 -15 -15 0 -19 6 -16 28 2
21 -1 28 -19 30 -14 2 -26 -4 -33 -17z"/>
<path d="M3888 7993 c-35 -42 -47 -70 -35 -82 16 -16 24 -14 46 17 28 39 37
82 19 82 -8 0 -22 -8 -30 -17z"/>
<path d="M5876 7984 c-13 -12 -20 -13 -31 -4 -17 14 -57 9 -63 -8 -2 -7 4 -16
15 -18 11 -3 24 -19 30 -35 6 -16 18 -29 26 -29 22 0 39 27 32 50 -5 17 -2 23
15 27 11 3 19 10 17 16 -6 18 -24 19 -41 1z"/>
<path d="M5951 7934 c-22 -28 -27 -44 -13 -44 12 0 52 44 52 58 0 20 -17 14
-39 -14z"/>
<path d="M3472 7923 c5 -25 28 -28 28 -4 0 12 -6 21 -16 21 -9 0 -14 -7 -12
-17z"/>
<path d="M6301 7899 c-17 -17 -31 -41 -31 -54 0 -13 -6 -28 -14 -32 -8 -5 -17
-36 -22 -73 -7 -51 -13 -65 -26 -65 -25 0 -32 -13 -19 -29 16 -19 10 -68 -8
-74 -11 -4 -13 3 -8 32 4 27 2 36 -8 36 -23 0 -27 -19 -11 -52 9 -17 16 -45
16 -62 0 -17 5 -38 10 -46 8 -13 11 -12 23 4 12 17 15 14 38 -30 35 -68 49
-68 49 0 0 42 4 56 14 56 18 0 29 31 20 54 -10 25 -24 19 -36 -14 -16 -47 -68
-65 -68 -24 0 27 29 71 50 77 24 6 26 36 5 78 -14 27 -14 32 0 51 8 13 15 36
15 52 0 29 1 29 18 13 14 -14 17 -36 17 -111 l0 -93 38 -42 c22 -25 37 -51 37
-67 0 -19 4 -25 18 -22 15 3 17 14 14 76 -3 53 1 77 12 94 9 12 16 36 16 53 0
23 -3 27 -10 15 -5 -8 -10 -25 -10 -37 0 -12 -5 -23 -10 -25 -6 -2 -12 -13
-15 -26 -5 -30 -15 -43 -26 -37 -13 9 -11 72 3 94 9 15 9 28 0 59 -7 22 -12
52 -12 68 0 16 -3 39 -6 52 -6 22 -8 22 -25 6 -17 -15 -19 -15 -19 -1 0 9 5
19 10 22 13 8 13 42 1 49 -5 4 -23 -8 -40 -25z"/>
<path d="M3487 7874 c-11 -11 -8 -52 4 -59 5 -4 18 0 28 9 22 20 31 20 31 1 0
-9 -12 -18 -28 -21 -23 -5 -33 -18 -59 -77 -34 -76 -62 -192 -49 -204 12 -12
40 12 51 43 6 16 19 43 30 59 12 17 27 42 35 58 19 38 30 34 30 -13 0 -22 5
-40 10 -40 7 0 9 20 4 58 -4 39 -1 74 9 108 l15 50 -27 11 c-40 18 -76 25 -84
17z"/>
<path d="M6050 7865 c0 -9 5 -15 11 -13 6 2 11 8 11 13 0 5 -5 11 -11 13 -6 2
-11 -4 -11 -13z"/>
<path d="M5962 7824 c-7 -13 -18 -16 -46 -11 -26 4 -36 2 -36 -8 0 -16 72 -18
82 -2 4 6 10 8 14 4 4 -4 2 -13 -4 -19 -13 -13 -16 -68 -4 -68 12 0 44 77 40
97 -4 24 -34 28 -46 7z"/>
<path d="M3956 7794 c-4 -11 -13 -14 -31 -10 -18 5 -27 1 -35 -15 -10 -17 -8
-25 11 -45 28 -30 39 -30 39 -1 0 12 9 28 20 35 11 7 20 21 20 32 0 24 -15 26
-24 4z"/>
<path d="M5880 7745 c0 -14 -5 -34 -12 -44 -10 -16 -7 -27 12 -64 23 -43 23
-45 7 -98 -12 -42 -14 -70 -8 -124 13 -109 48 -227 75 -251 27 -24 91 -154 99
-199 3 -16 12 -66 20 -110 28 -149 39 -250 38 -358 0 -59 -3 -112 -5 -116 -3
-4 -7 -33 -10 -65 -4 -47 -2 -58 14 -66 32 -17 40 -11 41 33 l1 42 10 -32 c11
-34 22 -41 33 -23 10 16 -5 70 -20 70 -23 0 -35 114 -12 122 18 7 37 -2 37
-17 0 -8 9 -22 19 -32 10 -10 20 -27 22 -37 2 -11 10 -21 17 -24 19 -6 14 27
-8 55 -12 16 -20 41 -20 65 0 35 -3 40 -35 54 -19 8 -35 16 -35 19 0 2 9 27
20 55 11 28 20 61 20 73 0 12 9 28 19 34 11 7 22 27 26 44 4 18 18 44 31 58
13 14 24 29 24 33 0 5 8 8 18 8 9 0 28 9 42 20 l25 20 -32 0 c-18 0 -48 7 -67
17 -30 14 -38 14 -51 3 -19 -15 -50 -80 -59 -122 -4 -16 -13 -28 -21 -28 -8 0
-15 -9 -15 -20 0 -12 -7 -20 -16 -20 -12 0 -14 5 -8 18 4 9 11 78 15 152 5 74
10 143 13 152 2 10 0 21 -5 24 -16 9 -10 40 11 59 20 18 29 85 12 85 -20 0
-52 -48 -52 -78 0 -18 -4 -32 -8 -32 -16 0 -52 60 -52 86 0 14 -9 37 -20 51
-11 14 -20 34 -20 44 0 10 -4 21 -10 24 -5 3 -10 23 -10 43 0 20 -11 64 -25
97 -31 75 -32 105 -5 105 11 0 20 7 20 15 0 8 -9 15 -19 15 -31 0 -35 19 -7
32 29 13 33 30 11 48 -8 7 -15 21 -15 32 0 26 -37 78 -56 78 -8 0 -14 -10 -14
-25z"/>
<path d="M7790 7715 c0 -25 5 -45 10 -45 6 0 10 20 10 45 0 25 -4 45 -10 45
-5 0 -10 -20 -10 -45z"/>
<path d="M6541 7633 c0 -42 3 -52 9 -38 12 28 12 95 0 95 -6 0 -10 -25 -9 -57z"/>
<path d="M7716 7664 c-7 -35 -1 -312 7 -321 4 -3 14 -3 23 1 13 5 15 13 8 44
-8 38 -8 88 -3 204 3 52 0 71 -13 84 -15 15 -16 14 -22 -12z"/>
<path d="M3984 7669 c-3 -6 -17 -8 -30 -5 -19 5 -26 0 -39 -23 -18 -37 -19
-60 -2 -67 18 -6 18 -70 1 -85 -8 -6 -14 -20 -14 -31 0 -17 4 -19 23 -13 12 4
48 10 80 12 61 5 80 21 57 48 -7 8 -14 40 -16 71 -4 74 -38 127 -60 93z"/>
<path d="M7801 7635 c-2 -5 -5 -37 -6 -70 -2 -33 -5 -90 -8 -127 -3 -38 -2
-70 4 -73 16 -11 20 19 16 151 -1 71 -4 125 -6 119z"/>
<path d="M5987 7527 c-8 -21 4 -68 17 -64 18 6 20 77 3 77 -8 0 -17 -6 -20
-13z"/>
<path d="M6056 7505 c-9 -24 -7 -63 3 -69 11 -7 21 66 11 77 -4 5 -10 1 -14
-8z"/>
<path d="M3410 7480 c-15 -28 -6 -50 20 -50 24 0 37 26 23 48 -15 25 -31 25
-43 2z"/>
<path d="M6361 7380 c-30 -57 -34 -74 -34 -143 0 -42 -4 -80 -9 -83 -5 -3 -1
-14 9 -24 21 -19 64 -44 67 -38 22 38 26 56 17 82 -6 15 -11 41 -11 58 0 18
-5 46 -12 64 -9 26 -9 38 1 57 7 13 11 39 9 58 l-3 34 -34 -65z"/>
<path d="M5630 7407 c0 -22 51 -68 73 -65 31 5 32 25 1 53 -28 26 -74 34 -74
12z"/>
<path d="M3989 7362 c-18 -9 -35 -23 -37 -29 -6 -19 25 -16 32 3 5 12 10 13
19 6 18 -15 113 7 96 22 -16 13 -81 12 -110 -2z"/>
<path d="M6254 7345 c-8 -20 16 -49 29 -36 11 11 0 51 -14 51 -5 0 -12 -7 -15
-15z"/>
<path d="M7789 7335 c-4 -120 -7 -137 -20 -146 -8 -5 -22 -7 -31 -5 -16 4 -18
-4 -18 -60 0 -35 3 -64 6 -64 16 0 33 38 34 73 0 25 4 37 15 37 11 0 14 -16
14 -77 0 -376 1 -417 13 -405 15 15 13 641 -2 656 -7 7 -10 3 -11 -9z"/>
<path d="M7717 7308 c-5 -16 13 -58 24 -58 16 0 22 52 8 61 -19 12 -27 11 -32
-3z"/>
<path d="M6170 7295 c0 -8 5 -15 10 -15 6 0 10 7 10 15 0 8 -4 15 -10 15 -5 0
-10 -7 -10 -15z"/>
<path d="M3930 7219 c0 -4 -25 -21 -55 -38 -80 -45 -96 -90 -40 -111 28 -11
32 -25 10 -34 -8 -3 -15 -14 -15 -24 0 -10 -5 -23 -12 -30 -19 -19 -27 -236
-11 -300 10 -40 10 -75 2 -153 -9 -87 -8 -104 6 -118 19 -22 19 -60 0 -97 -20
-39 -19 -57 5 -79 23 -20 22 -54 -1 -180 -6 -33 -13 -94 -15 -135 -3 -41 -6
-88 -7 -104 -2 -24 3 -31 22 -36 13 -3 29 -14 35 -25 6 -11 26 -37 44 -58 17
-20 32 -42 32 -47 0 -6 5 -10 11 -10 8 0 10 17 6 54 -3 31 -1 58 5 64 7 7 4
14 -11 24 -11 7 -21 22 -21 33 0 11 -7 33 -15 49 -11 20 -14 43 -9 72 3 24 1
50 -5 63 -9 15 -9 38 0 87 8 46 8 72 1 87 -17 35 -22 71 -12 86 5 9 3 20 -7
29 -10 10 -13 25 -9 46 3 17 9 50 12 73 4 28 12 43 24 46 31 8 32 75 2 127
-19 32 -26 60 -26 98 -1 58 13 75 52 65 17 -4 34 5 73 42 l51 48 20 -21 c16
-16 18 -23 9 -40 -18 -33 -13 -52 20 -83 44 -41 91 -47 134 -18 36 25 51 51
40 69 -4 6 -16 3 -32 -10 -14 -11 -32 -20 -39 -20 -17 0 -26 32 -18 64 5 21
12 26 39 26 19 0 37 -4 40 -10 3 -5 13 -10 22 -10 14 0 14 2 -1 19 -25 27 -98
48 -196 56 l-85 6 -48 -36 c-54 -41 -77 -40 -77 3 0 38 28 62 79 69 46 6 45 6
55 46 6 23 3 27 -16 27 -40 0 -67 12 -73 31 -11 34 4 55 58 77 50 20 74 21
125 6 18 -5 22 -2 22 15 0 29 40 37 90 17 42 -17 110 -22 110 -8 0 4 -9 13
-20 20 -11 7 -20 19 -20 27 0 28 -50 50 -119 51 -36 1 -68 3 -71 5 -20 10
-170 17 -170 8z m240 -445 c0 -31 -3 -35 -21 -32 -31 4 -46 32 -30 52 8 9 22
16 32 16 15 0 19 -7 19 -36z"/>
<path d="M5604 7178 c-4 -6 -2 -14 4 -16 7 -2 12 -12 12 -23 0 -16 -3 -17 -25
-7 -14 6 -25 17 -25 25 0 10 -16 13 -67 11 -38 -1 -101 2 -140 7 -66 7 -73 6
-79 -11 -4 -10 -16 -26 -27 -35 -23 -19 -14 -43 13 -34 25 8 70 -11 70 -30 0
-21 27 -30 45 -15 10 9 27 9 62 2 26 -6 62 -8 80 -5 31 5 137 -26 180 -53 12
-8 40 -14 63 -14 35 0 40 3 40 23 0 17 -26 46 -92 105 -51 45 -96 82 -100 82
-4 0 -10 -5 -14 -12z"/>
<path d="M5157 7163 c-15 -8 -34 -31 -42 -50 -14 -32 -14 -39 -1 -51 16 -17
36 -8 36 15 0 9 7 23 15 32 46 51 55 61 55 66 0 9 -35 3 -63 -12z"/>
<path d="M4370 7101 c-15 -28 -13 -31 20 -31 17 0 30 3 30 6 0 12 -21 44 -30
44 -5 0 -14 -9 -20 -19z"/>
<path d="M3400 7103 c-26 -10 -60 -46 -60 -65 0 -26 15 -22 28 7 7 14 23 30
37 37 38 17 33 35 -5 21z"/>
<path d="M6270 7058 c0 -7 14 -28 30 -46 17 -18 30 -39 30 -45 0 -7 8 4 18 23
16 33 16 36 -1 53 -24 24 -77 35 -77 15z"/>
<path d="M7720 6975 c0 -97 29 -120 33 -27 1 38 -3 56 -15 69 -17 16 -18 14
-18 -42z"/>
<path d="M3388 6933 c-18 -52 -23 -83 -17 -94 4 -9 8 -51 7 -93 -2 -89 16
-124 26 -52 9 55 31 101 68 141 30 33 37 79 13 89 -8 3 -15 12 -15 21 0 22
-30 65 -44 65 -7 0 -24 -35 -38 -77z"/>
<path d="M6240 6990 c0 -11 5 -20 10 -20 6 0 10 9 10 20 0 11 -4 20 -10 20 -5
0 -10 -9 -10 -20z"/>
<path d="M5470 6930 c-11 -7 -11 -11 -1 -24 8 -9 20 -16 29 -16 42 0 150 -90
182 -152 37 -72 21 -77 -58 -16 -66 51 -109 69 -181 75 -78 7 -186 -6 -172
-20 6 -6 11 -24 11 -39 0 -61 60 -138 108 -138 48 0 121 63 109 94 -9 23 -45
25 -71 5 -24 -19 -36 -16 -36 7 0 28 28 41 83 38 46 -2 59 -8 89 -38 20 -20
38 -42 41 -50 4 -9 15 -12 33 -8 48 9 88 -74 47 -97 -17 -9 -17 -10 1 -17 10
-4 27 -2 36 4 14 9 19 8 24 -3 7 -19 32 -19 40 0 8 21 26 19 26 -3 0 -24 8
-32 25 -25 17 6 3 48 -27 80 -20 21 -20 24 -4 48 13 20 14 29 5 48 -7 12 -18
26 -25 30 -9 5 -14 25 -14 51 0 24 -7 60 -15 79 -15 36 -49 64 -59 49 -3 -5
-36 1 -73 13 -83 28 -135 36 -153 25z m-116 -186 c30 -12 18 -34 -19 -34 -24
0 -35 5 -35 14 0 21 27 31 54 20z"/>
<path d="M6431 6864 c-33 -42 -28 -64 14 -64 44 0 63 -28 60 -90 -1 -29 5 -54
17 -71 16 -25 17 -29 2 -59 -9 -18 -17 -62 -19 -99 -2 -84 -34 -172 -83 -231
-21 -25 -41 -53 -45 -62 -3 -10 -13 -18 -22 -18 -15 0 -19 -20 -15 -68 1 -13
-7 -34 -18 -45 -30 -33 -39 -117 -13 -117 14 0 41 71 41 105 0 27 4 35 18 35
27 0 54 33 116 145 80 145 121 275 133 421 5 62 2 78 -19 126 -27 58 -91 118
-126 118 -11 0 -30 -12 -41 -26z"/>
<path d="M6630 6853 c0 -6 7 -16 15 -23 8 -7 15 -21 15 -31 0 -20 15 -26 25
-10 3 5 -8 24 -25 42 -16 19 -30 29 -30 22z"/>
<path d="M7727 6823 c-13 -13 -7 -53 8 -53 10 0 15 10 15 30 0 29 -9 38 -23
23z"/>
<path d="M4968 6788 c-9 -7 -26 -35 -38 -62 -33 -74 -16 -138 55 -209 46 -46
79 -49 94 -7 12 35 38 39 62 11 9 -10 35 -21 58 -25 23 -3 59 -17 79 -31 41
-27 99 -33 194 -20 56 7 67 17 68 63 0 22 -20 13 -30 -14 -10 -26 -10 -26 -97
-20 -59 5 -93 12 -105 23 -10 8 -26 13 -38 10 -11 -3 -20 -1 -20 4 0 12 -75
49 -100 49 -11 0 -20 4 -20 10 0 10 22 17 70 22 24 3 24 4 -10 21 -33 17 -35
17 -62 -3 -30 -22 -51 -19 -41 5 8 23 -6 65 -22 65 -23 0 -27 -19 -11 -52 15
-29 15 -32 -8 -54 -21 -22 -25 -23 -37 -8 -11 13 -10 17 4 25 28 16 20 32 -13
26 -33 -7 -48 10 -52 59 -2 29 26 84 43 84 5 0 9 9 9 20 0 23 -9 25 -32 8z"/>
<path d="M5097 6794 c-8 -8 1 -24 14 -24 5 0 9 7 9 15 0 15 -12 20 -23 9z"/>
<path d="M5205 6760 c-3 -5 -24 -14 -45 -20 -22 -6 -40 -15 -40 -20 0 -6 -7
-10 -15 -10 -8 0 -15 -4 -15 -10 0 -5 7 -10 15 -10 8 0 15 4 15 10 0 5 16 12
36 16 19 4 38 13 41 20 3 8 11 14 19 14 8 0 14 5 14 10 0 13 -17 13 -25 0z"/>
<path d="M4558 6711 c3 -42 1 -51 -17 -61 -12 -6 -21 -21 -21 -35 0 -13 -8
-29 -17 -34 -29 -17 1 -13 35 5 26 12 32 22 32 47 0 18 4 38 9 46 8 13 -7 81
-18 81 -3 0 -4 -22 -3 -49z"/>
<path d="M6690 6700 c0 -33 4 -60 9 -60 12 0 17 43 12 88 -6 55 -21 35 -21
-28z"/>
<path d="M7731 6718 c1 -13 -1 -31 -6 -41 -4 -9 -2 -23 3 -30 6 -7 7 -18 3
-26 -10 -16 1 -63 15 -68 6 -2 16 8 22 22 6 14 16 25 22 25 5 0 10 9 10 20 0
13 -7 20 -20 20 -17 0 -20 7 -20 50 0 39 -4 50 -16 50 -10 0 -15 -8 -13 -22z"/>
<path d="M3952 6658 c4 -32 12 -56 22 -64 13 -9 16 -20 10 -49 -3 -20 -13 -39
-20 -42 -8 -3 -14 -12 -14 -20 0 -12 6 -13 28 -7 15 5 53 9 84 9 62 1 82 9 49
20 -12 3 -19 11 -16 16 4 5 -10 25 -29 45 -20 20 -38 46 -42 58 -8 25 -56 86
-68 86 -5 0 -6 -23 -4 -52z"/>
<path d="M5555 6599 c-4 -6 -5 -12 -2 -15 7 -7 37 7 37 17 0 13 -27 11 -35 -2z"/>
<path d="M4283 6565 c-3 -9 -3 -19 1 -22 7 -7 36 16 36 28 0 15 -30 10 -37 -6z"/>
<path d="M6226 6564 c-10 -25 -7 -44 7 -44 19 -1 53 -33 71 -68 9 -18 23 -32
31 -32 20 0 20 46 0 54 -8 3 -15 15 -15 27 0 32 -38 79 -65 79 -12 0 -26 -7
-29 -16z"/>
<path d="M7786 6519 c-3 -17 -3 -49 0 -70 5 -32 4 -39 -10 -39 -28 0 -29 -28
-2 -61 20 -24 24 -37 19 -57 -4 -15 -6 -85 -5 -157 2 -144 1 -335 -1 -463 -2
-79 4 -114 18 -100 6 5 10 554 7 836 -2 135 -12 179 -26 111z"/>
<path d="M3322 6500 c0 -19 2 -27 5 -17 2 9 2 25 0 35 -3 9 -5 1 -5 -18z"/>
<path d="M4470 6499 c0 -22 -12 -46 -40 -79 -22 -26 -40 -55 -40 -63 0 -9 -9
-22 -20 -30 -16 -11 -21 -28 -24 -73 -3 -61 -14 -93 -54 -157 -45 -75 -30
-139 41 -168 18 -8 43 -26 55 -41 38 -44 162 -72 162 -36 0 5 -7 22 -15 39
-19 36 -13 49 23 49 28 0 53 28 59 65 8 51 37 63 52 21 5 -13 17 -26 26 -30
14 -5 16 -2 10 11 -14 32 -6 265 9 298 11 22 13 51 9 105 l-6 75 -42 0 c-49 0
-47 3 -61 -140 -3 -38 -17 -104 -31 -146 -19 -61 -23 -91 -20 -152 5 -88 -8
-113 -43 -82 -28 26 -86 13 -94 -20 -14 -56 -86 -8 -86 57 0 21 34 71 88 128
34 36 37 64 13 103 -32 53 -27 79 26 134 47 47 73 97 73 141 0 19 -5 22 -35
22 -33 0 -35 -2 -35 -31z"/>
<path d="M4405 6491 c-6 -11 9 -23 19 -14 9 9 7 23 -3 23 -6 0 -12 -4 -16 -9z"/>
<path d="M1550 6475 c0 -9 5 -15 11 -13 6 2 11 8 11 13 0 5 -5 11 -11 13 -6 2
-11 -4 -11 -13z"/>
<path d="M7736 6302 c-9 -28 -10 -371 -2 -380 4 -3 12 0 18 6 9 9 9 18 0 37
-13 29 -16 65 -4 65 10 0 13 231 3 266 -8 29 -8 29 -15 6z"/>
<path d="M6297 6260 c-14 -11 -34 -20 -46 -20 -11 0 -28 -8 -38 -18 -10 -11
-26 -22 -35 -25 -28 -10 -21 -43 13 -68 34 -24 41 -20 59 34 11 35 14 37 54
37 35 0 45 4 56 25 11 20 11 27 0 40 -17 20 -32 19 -63 -5z"/>
<path d="M535 6240 c-3 -5 3 -10 14 -10 12 0 21 5 21 10 0 6 -6 10 -14 10 -8
0 -18 -4 -21 -10z"/>
<path d="M6087 6197 c-3 -7 -1 -20 3 -28 7 -11 10 -10 16 4 4 10 2 23 -3 28
-7 7 -12 6 -16 -4z"/>
<path d="M3407 6193 c-7 -13 5 -83 14 -83 12 0 12 77 0 85 -5 3 -12 2 -14 -2z"/>
<path d="M5037 6173 c-12 -11 -8 -56 6 -72 23 -26 39 -105 35 -166 -4 -71 12
-82 43 -31 11 20 26 36 33 36 7 0 25 13 40 29 l29 30 -26 28 c-57 61 -87 101
-87 116 0 8 -14 20 -31 26 -38 13 -34 13 -42 4z"/>
<path d="M6105 6109 c-10 -31 24 -73 63 -77 27 -3 32 0 32 18 0 14 -9 24 -30
31 -16 6 -32 19 -35 30 -8 25 -22 24 -30 -2z"/>
<path d="M6060 6075 c0 -14 4 -25 9 -25 5 0 11 11 13 25 4 17 1 25 -8 25 -8 0
-14 -11 -14 -25z"/>
<path d="M6234 6069 c-11 -18 11 -32 25 -16 9 12 8 16 -3 20 -9 4 -18 1 -22
-4z"/>
<path d="M6062 5991 c-7 -4 -14 -23 -14 -41 -1 -36 10 -48 76 -82 39 -20 41
-20 74 -2 l34 18 -50 22 c-40 18 -52 29 -62 58 -12 36 -31 45 -58 27z"/>
<path d="M5214 5935 c-7 -17 4 -37 17 -30 12 8 12 45 -1 45 -6 0 -13 -7 -16
-15z"/>
<path d="M4839 5893 c-79 -68 -111 -102 -104 -112 12 -21 43 -11 71 22 26 31
29 32 95 30 70 -3 104 12 93 40 -3 10 -91 57 -106 57 -2 0 -24 -17 -49 -37z"/>
<path d="M6017 5878 c-2 -7 -2 -28 1 -45 3 -21 0 -33 -7 -33 -6 0 -11 -15 -11
-34 0 -59 -11 -94 -31 -99 -17 -4 -19 -11 -13 -44 4 -29 2 -42 -10 -52 -9 -7
-16 -26 -16 -42 0 -15 -5 -31 -11 -34 -5 -4 -14 -18 -19 -31 -6 -14 -18 -24
-30 -24 -16 0 -20 -7 -20 -37 0 -56 -10 -83 -30 -83 -9 0 -25 -9 -35 -20 -10
-11 -28 -20 -40 -20 -21 0 -45 -17 -45 -32 0 -4 7 -8 16 -8 26 0 6 -61 -32
-96 -19 -18 -34 -38 -34 -45 -1 -8 -10 -25 -21 -38 -15 -18 -23 -21 -31 -13
-19 19 -28 14 -28 -17 0 -16 -11 -40 -26 -57 -71 -79 -118 -123 -126 -118 -5
3 -20 -4 -34 -17 -13 -12 -34 -23 -46 -24 -15 -1 -24 -10 -28 -26 -5 -21 -14
-25 -75 -34 -69 -10 -70 -10 -73 -42 -2 -25 -8 -33 -22 -33 -32 0 -70 -22 -70
-42 0 -14 8 -18 34 -18 19 0 38 5 41 10 3 6 17 10 30 10 13 0 27 5 30 11 4 5
17 15 28 20 43 19 115 65 143 91 125 119 159 148 171 148 7 0 24 18 38 40 14
22 29 40 34 40 14 0 22 -81 12 -123 -11 -46 5 -46 32 1 16 27 17 38 7 92 l-11
61 41 46 c48 55 99 139 126 206 12 31 28 51 45 59 18 8 31 28 48 75 13 34 27
65 32 69 5 3 9 16 9 28 0 13 6 29 14 35 7 6 16 33 20 59 4 26 13 56 21 66 8
11 15 30 15 42 0 13 5 26 10 29 6 3 10 40 10 81 0 57 -3 74 -14 74 -8 0 -16
-6 -19 -12z"/>
<path d="M5662 5788 c2 -17 9 -22 23 -20 42 8 41 42 -1 42 -21 0 -25 -4 -22
-22z"/>
<path d="M4914 5736 c-8 -22 3 -33 18 -18 9 9 9 15 0 24 -9 9 -13 7 -18 -6z"/>
<path d="M4766 5709 c-4 -22 -14 -34 -36 -42 -56 -21 -43 -73 16 -61 33 7 72
70 54 88 -6 6 -10 18 -10 28 0 30 -17 20 -24 -13z"/>
<path d="M5630 5699 c0 -11 5 -17 10 -14 6 3 10 13 10 21 0 8 -4 14 -10 14 -5
0 -10 -9 -10 -21z"/>
<path d="M4890 5697 c0 -7 7 -23 16 -35 11 -16 21 -21 40 -16 14 4 24 2 24 -5
0 -6 8 -11 18 -11 10 0 23 -5 29 -11 16 -16 67 -7 71 12 3 18 -80 65 -97 55
-5 -3 -28 1 -51 9 -51 18 -50 18 -50 2z"/>
<path d="M4170 5690 c-20 -5 -24 -12 -22 -32 1 -15 -2 -29 -8 -33 -22 -14 -8
-23 32 -22 43 2 43 2 43 40 0 45 -11 56 -45 47z"/>
<path d="M5814 5643 c-4 -15 -11 -34 -17 -41 -5 -7 -7 -15 -4 -18 9 -9 26 5
42 36 13 24 13 30 0 40 -12 10 -15 7 -21 -17z"/>
<path d="M5194 5635 c-18 -15 -18 -16 19 -49 26 -23 36 -39 31 -48 -5 -7 -7
-25 -5 -40 2 -22 -2 -28 -24 -34 -34 -8 -110 2 -146 20 -55 27 -262 5 -232
-25 5 -5 43 -12 84 -15 41 -3 90 -12 109 -19 23 -8 60 -11 107 -8 l72 6 22
-37 c22 -38 54 -47 77 -24 10 10 8 16 -7 28 -18 13 -19 19 -8 53 13 41 32 48
42 17 4 -11 11 -18 16 -15 18 12 8 58 -20 94 -15 20 -31 46 -35 59 -4 12 -15
22 -25 22 -10 0 -24 7 -31 15 -16 19 -21 19 -46 0z"/>
<path d="M4116 5573 c-11 -11 -6 -23 9 -23 8 0 15 4 15 9 0 13 -16 22 -24 14z"/>
<path d="M3741 5558 c1 -7 5 -24 9 -38 7 -22 8 -21 9 13 1 20 -3 37 -9 37 -5
0 -10 -6 -9 -12z"/>
<path d="M3970 5516 c0 -17 5 -26 16 -26 10 0 14 7 12 22 -5 32 -28 35 -28 4z"/>
<path d="M7790 5306 c0 -193 -3 -236 -15 -246 -13 -11 -13 -14 0 -27 15 -14
19 -45 17 -135 0 -27 3 -48 9 -48 10 0 12 51 11 350 -1 328 -1 340 -12 340 -6
0 -10 -85 -10 -234z"/>
<path d="M4390 5514 c-19 -2 -51 -7 -70 -10 l-35 -6 35 -17 c30 -14 40 -15 70
-4 48 17 92 16 116 -2 21 -16 119 -21 109 -5 -3 6 -21 10 -38 10 -18 0 -42 7
-54 15 -23 16 -81 25 -133 19z"/>
<path d="M3772 5454 c2 -15 9 -29 16 -32 10 -3 13 4 10 24 -2 15 -9 29 -16 32
-10 3 -13 -4 -10 -24z"/>
<path d="M3830 5341 c0 -11 14 -40 30 -64 17 -25 30 -51 30 -59 0 -22 61 -99
86 -108 15 -6 27 -22 34 -48 5 -22 17 -45 26 -53 8 -7 21 -27 29 -46 8 -18 19
-33 25 -33 7 0 9 -8 5 -20 -8 -25 10 -50 37 -50 10 0 21 -7 24 -15 4 -8 14
-15 23 -15 9 0 33 -20 55 -45 21 -25 43 -45 48 -45 6 0 28 -14 50 -32 30 -23
50 -31 74 -30 29 2 33 -1 39 -28 4 -16 11 -30 16 -30 5 0 12 -1 17 -2 4 -2 7
14 8 35 1 30 -2 37 -18 37 -26 0 -55 16 -109 61 -32 27 -56 39 -78 39 -32 0
-41 16 -20 37 12 12 7 17 -67 84 -22 19 -46 50 -53 67 -8 18 -20 32 -27 32 -8
0 -17 14 -20 30 -4 17 -10 30 -15 30 -5 0 -9 6 -9 14 0 8 -9 24 -19 37 -17 21
-23 22 -40 12 -17 -11 -21 -10 -26 7 -4 11 -10 20 -15 20 -5 0 -6 15 -3 33 4
28 1 37 -21 55 -15 11 -32 22 -39 25 -7 2 -12 17 -13 34 -1 40 -11 53 -40 53
-17 0 -24 -5 -24 -19z"/>
<path d="M5580 5321 c0 -5 7 -14 15 -21 18 -15 42 1 31 19 -8 13 -46 15 -46 2z"/>
<path d="M5330 5261 c-26 -7 -56 -54 -45 -71 3 -6 16 -10 29 -10 20 0 31 14
64 83 4 8 -13 8 -48 -2z"/>
<path d="M5906 5233 c-3 -21 -7 -67 -8 -103 -3 -59 -1 -65 17 -65 22 0 21 -6
17 135 -2 75 -17 94 -26 33z"/>
<path d="M5640 5215 c0 -8 4 -15 9 -15 5 0 14 7 21 15 10 13 9 15 -9 15 -12 0
-21 -6 -21 -15z"/>
<path d="M4890 5187 c0 -7 16 -21 35 -30 32 -15 35 -15 43 1 5 9 7 23 5 30 -6
17 -83 16 -83 -1z"/>
<path d="M7715 5180 c-9 -14 4 -52 16 -45 12 8 12 42 0 50 -5 3 -12 1 -16 -5z"/>
<path d="M4820 5167 c0 -8 3 -17 6 -20 10 -9 46 12 39 24 -9 14 -45 11 -45 -4z"/>
<path d="M4156 5129 c-21 -21 -16 -35 9 -26 8 4 15 16 15 27 0 24 0 24 -24 -1z"/>
<path d="M5307 5093 c-22 -6 -19 -32 6 -47 20 -12 37 4 37 37 0 17 -8 19 -43
10z"/>
<path d="M4222 5034 c1 -9 9 -19 16 -22 9 -3 13 2 10 14 -1 9 -9 19 -16 22 -9
3 -13 -2 -10 -14z"/>
<path d="M7720 5009 c0 -11 5 -17 10 -14 6 3 10 13 10 21 0 8 -4 14 -10 14 -5
0 -10 -9 -10 -21z"/>
<path d="M5895 4981 c-7 -12 14 -257 26 -301 5 -19 9 -46 9 -58 0 -23 10 -50
51 -138 10 -23 19 -46 19 -52 0 -6 11 -19 24 -29 13 -11 25 -28 28 -39 2 -10
10 -19 18 -19 10 0 18 21 27 69 14 75 11 90 -11 60 -23 -31 -32 -8 -51 126
-26 191 -12 243 40 159 54 -85 68 -143 66 -274 -1 -103 -4 -122 -20 -135 -26
-21 -43 -57 -31 -65 13 -8 50 17 50 35 0 9 13 31 29 50 15 19 32 50 36 68 7
32 8 33 26 16 10 -9 19 -30 19 -45 0 -18 7 -32 21 -39 11 -7 18 -17 15 -25 -2
-7 11 -37 29 -65 36 -56 63 -132 67 -190 3 -32 6 -35 38 -38 20 -2 46 -14 62
-29 17 -17 33 -23 44 -19 22 8 64 -30 64 -58 0 -12 5 -28 10 -36 8 -12 12 -9
22 16 l12 32 22 -42 c14 -26 19 -45 13 -52 -15 -18 22 -74 48 -74 12 0 24 -4
27 -9 3 -4 34 -18 68 -31 86 -30 95 -34 160 -64 31 -14 63 -26 70 -26 16 0
173 -45 248 -72 30 -11 79 -26 108 -34 29 -8 114 -47 188 -87 123 -65 140 -78
195 -143 33 -40 77 -84 98 -98 21 -15 53 -49 71 -77 27 -42 37 -50 59 -47 17
1 35 -6 49 -20 l22 -22 -25 -10 c-20 -8 -25 -15 -20 -29 4 -14 0 -23 -15 -31
-26 -14 -26 -30 0 -37 12 -3 20 -14 20 -25 0 -18 -2 -19 -17 -7 -15 13 -16 11
-9 -16 4 -16 8 -30 9 -30 1 0 13 -6 26 -13 20 -12 25 -12 32 0 5 7 9 18 9 25
0 7 17 31 38 53 20 22 39 50 42 62 8 32 28 33 42 1 l12 -28 4 27 c4 30 -4 43
-68 118 -46 54 -147 136 -156 127 -10 -9 20 -48 54 -69 35 -21 40 -50 9 -56
-11 -2 -21 7 -29 25 -7 15 -25 39 -39 53 -51 48 -77 108 -27 63 25 -23 23 2
-3 28 -15 15 -28 19 -48 14 -23 -5 -33 -1 -52 22 -21 25 -61 62 -170 157 -14
12 -46 33 -72 45 -25 12 -51 29 -57 37 -7 7 -20 14 -29 14 -9 0 -34 9 -56 20
-22 11 -46 20 -55 20 -8 0 -60 17 -115 36 -55 20 -109 37 -120 38 -11 2 -33 8
-50 15 -16 7 -37 10 -47 8 -10 -3 -29 3 -42 14 -13 10 -38 19 -55 19 -17 0
-31 5 -31 10 0 6 7 10 15 10 8 0 15 5 15 10 0 14 -26 13 -50 -2 -17 -11 -26
-10 -51 5 -17 9 -39 17 -49 17 -9 0 -24 7 -31 17 -13 15 -10 16 34 10 28 -4
47 -3 47 3 0 11 -53 40 -74 40 -8 0 -20 9 -26 20 -6 11 -19 20 -30 20 -11 0
-44 20 -74 45 -31 25 -60 45 -64 45 -9 0 -82 67 -82 75 0 6 -42 55 -117 135
-71 76 -134 165 -147 207 -4 11 -13 24 -21 27 -12 4 -15 27 -15 103 0 160 -49
267 -158 346 -72 52 -187 103 -197 88z"/>
<path d="M5270 4955 c0 -8 7 -15 15 -15 8 0 15 7 15 15 0 8 -7 15 -15 15 -8 0
-15 -7 -15 -15z"/>
<path d="M3915 4931 c-15 -30 -100 -153 -124 -180 -11 -13 -21 -34 -21 -47 0
-13 -4 -26 -10 -29 -5 -3 -10 -20 -10 -36 0 -21 -10 -39 -32 -60 -18 -16 -38
-29 -45 -29 -6 0 -16 -6 -20 -13 -4 -8 -24 -24 -43 -38 -19 -13 -37 -26 -40
-29 -12 -13 -60 -40 -71 -40 -6 0 -25 -6 -42 -14 -40 -17 -106 -34 -177 -47
-67 -12 -148 -38 -156 -50 -3 -5 -15 -9 -28 -9 -12 0 -31 -7 -42 -15 -10 -8
-27 -15 -37 -15 -11 0 -31 -6 -45 -14 -15 -8 -34 -17 -42 -20 -8 -4 -28 -15
-45 -25 -16 -11 -48 -29 -70 -39 -66 -33 -80 -36 -315 -81 -60 -12 -150 -27
-218 -37 -37 -5 -43 -9 -40 -27 3 -21 8 -22 98 -22 129 1 215 9 232 22 7 6 33
14 58 18 25 4 66 20 93 36 48 30 77 37 77 19 0 -5 -6 -10 -14 -10 -19 0 -46
-44 -46 -75 0 -20 -8 -29 -35 -41 -19 -8 -35 -19 -35 -24 0 -18 51 -11 78 10
14 12 35 20 46 19 12 -1 27 -1 33 0 18 2 45 59 38 81 -4 14 4 24 34 41 27 15
44 33 51 55 7 20 21 37 38 43 15 7 52 25 82 41 61 33 84 26 52 -15 -11 -14
-28 -58 -37 -97 -9 -39 -20 -79 -25 -89 -6 -9 -11 -42 -14 -73 -2 -31 -10 -66
-19 -79 -15 -24 -43 -174 -33 -184 2 -3 19 9 36 27 31 32 54 75 85 165 10 28
23 57 30 65 7 8 15 23 18 33 4 9 11 17 17 17 5 0 10 11 10 24 0 13 7 26 15 30
8 3 15 10 15 16 0 6 7 18 15 26 8 9 15 32 15 52 0 43 19 68 78 106 24 15 51
40 60 56 9 16 28 31 42 33 54 11 177 60 207 83 17 13 38 22 45 19 10 -4 21 8
34 35 10 22 27 43 37 46 21 7 35 32 41 75 5 45 26 89 42 89 16 0 24 -23 17
-48 -2 -11 1 -30 8 -43 6 -13 13 -50 14 -82 2 -32 8 -64 14 -70 6 -6 11 -39
11 -74 0 -59 11 -81 24 -48 11 29 26 15 26 -25 0 -34 4 -42 30 -55 17 -9 30
-22 30 -30 0 -16 16 -20 24 -6 5 8 -8 93 -54 341 -29 156 -33 203 -23 286 5
39 7 76 5 82 -6 19 -36 14 -47 -7z"/>
<path d="M7719 4898 c-1 -24 -3 -72 -5 -108 -6 -93 9 -110 18 -20 4 41 10 96
14 123 5 39 3 47 -10 47 -12 0 -16 -11 -17 -42z"/>
<path d="M4085 4837 c-7 -27 15 -67 37 -67 15 0 8 45 -11 70 l-19 25 -7 -28z"/>
<path d="M7790 4808 c0 -7 5 -20 10 -28 8 -12 10 -9 10 13 0 15 -4 27 -10 27
-5 0 -10 -6 -10 -12z"/>
<path d="M5544 4795 c-4 -8 1 -26 10 -40 9 -13 16 -31 16 -40 0 -10 10 -15 28
-15 18 0 38 -11 57 -30 29 -30 55 -39 55 -20 0 15 -31 61 -56 85 -12 11 -24
30 -28 43 -6 16 -13 21 -26 17 -10 -3 -21 -1 -25 5 -9 15 -25 12 -31 -5z"/>
<path d="M5680 4791 c0 -15 6 -21 21 -21 14 0 19 5 17 17 -5 26 -38 29 -38 4z"/>
<path d="M447 4743 c-10 -9 -9 -53 2 -53 12 0 20 35 12 49 -4 6 -10 8 -14 4z"/>
<path d="M7790 4645 c0 -50 4 -85 10 -85 6 0 10 35 10 85 0 50 -4 85 -10 85
-6 0 -10 -35 -10 -85z"/>
<path d="M4128 4703 c-21 -5 -24 -43 -4 -43 19 0 41 29 30 39 -5 4 -17 6 -26
4z"/>
<path d="M5515 4684 c-19 -19 -19 -30 0 -38 14 -5 45 18 45 34 0 16 -30 19
-45 4z"/>
<path d="M7718 4664 c-12 -12 -10 -594 2 -594 11 0 12 14 14 295 1 211 -4 312
-16 299z"/>
<path d="M4547 4654 c-3 -3 -3 -12 0 -20 7 -18 53 -18 53 0 0 19 -39 34 -53
20z"/>
<path d="M5407 4604 c-13 -13 -7 -24 14 -24 11 0 19 5 17 12 -5 14 -22 21 -31
12z"/>
<path d="M5541 4601 c-12 -8 -9 -11 12 -17 30 -7 43 -1 32 15 -8 13 -25 14
-44 2z"/>
<path d="M7797 4503 c-11 -10 -8 -43 3 -43 6 0 10 11 10 25 0 26 -2 29 -13 18z"/>
<path d="M597 4483 c-9 -9 12 -33 29 -33 19 0 18 26 -2 34 -19 7 -19 7 -27 -1z"/>
<path d="M5341 4449 c-18 -7 -21 -13 -14 -20 13 -13 65 1 71 19 4 14 -23 15
-57 1z"/>
<path d="M7789 4288 c-3 -301 -3 -343 7 -341 10 3 21 252 16 391 -5 144 -22
109 -23 -50z"/>
<path d="M4865 4390 c-3 -5 3 -10 14 -10 12 0 21 5 21 10 0 6 -6 10 -14 10 -8
0 -18 -4 -21 -10z"/>
<path d="M3614 4382 c-6 -4 -21 -25 -32 -46 -19 -36 -20 -40 -5 -51 9 -7 14
-19 11 -27 -4 -8 -3 -21 2 -28 11 -18 33 -2 27 21 -3 10 1 26 9 36 16 22 18
53 3 53 -7 0 -9 10 -5 25 7 27 6 28 -10 17z"/>
<path d="M4070 4205 c0 -8 5 -15 10 -15 6 0 10 7 10 15 0 8 -4 15 -10 15 -5 0
-10 -7 -10 -15z"/>
<path d="M3395 4190 c-10 -11 -15 -23 -11 -27 6 -6 46 30 46 42 0 11 -18 4
-35 -15z"/>
<path d="M6065 4190 c-11 -18 6 -50 26 -50 22 0 22 0 9 34 -10 27 -24 33 -35
16z"/>
<path d="M6000 4056 c-5 -15 -21 -43 -35 -64 -14 -20 -25 -47 -25 -59 0 -14
-6 -23 -15 -23 -9 0 -15 -9 -15 -23 0 -13 -14 -44 -31 -67 -18 -24 -40 -67
-50 -94 -10 -28 -32 -78 -49 -111 -16 -33 -30 -66 -30 -72 0 -7 -3 -13 -8 -13
-4 0 -18 -24 -32 -52 -14 -29 -34 -61 -46 -70 -12 -10 -25 -30 -28 -44 -4 -15
-18 -41 -30 -58 -24 -32 -48 -80 -63 -128 -4 -14 -30 -54 -58 -89 -27 -34 -62
-83 -77 -108 -15 -27 -48 -61 -78 -82 -28 -20 -66 -59 -83 -86 -18 -27 -38
-58 -45 -69 -7 -10 -15 -27 -18 -36 -4 -10 -10 -18 -14 -18 -13 0 -44 -102
-42 -136 3 -33 -34 -90 -105 -164 -19 -19 -46 -59 -60 -87 -14 -29 -30 -53
-34 -53 -9 0 -39 -58 -39 -75 0 -7 -7 -18 -15 -25 -15 -12 -21 -50 -8 -50 10
0 71 71 108 127 20 28 46 61 60 71 14 11 25 22 25 25 0 12 72 123 87 134 17
13 35 55 58 138 8 27 24 61 35 75 11 14 28 40 37 58 9 17 20 32 24 32 5 0 21
19 38 43 16 23 50 64 75 92 25 27 51 62 57 78 6 15 28 46 49 68 21 23 43 58
49 79 6 21 18 43 26 50 8 7 15 18 15 24 0 6 17 36 38 66 21 30 46 72 55 92 10
20 21 40 26 42 5 3 12 18 16 33 3 15 17 37 31 50 13 12 24 33 24 48 0 14 11
43 25 64 13 22 27 51 31 65 3 15 10 29 15 32 5 3 9 21 9 39 0 24 6 38 20 45
20 11 40 66 40 110 0 14 13 41 30 60 16 19 29 41 30 48 0 7 7 27 16 44 11 21
13 33 5 41 -7 7 -13 2 -21 -17z"/>
<path d="M7716 4032 c-8 -13 -4 -339 4 -375 8 -31 13 74 15 291 1 77 -6 105
-19 84z"/>
<path d="M6257 3974 c-8 -8 1 -24 14 -24 5 0 9 7 9 15 0 15 -12 20 -23 9z"/>
<path d="M1925 3911 c-3 -6 -1 -29 5 -51 8 -30 22 -47 54 -70 35 -24 43 -34
39 -51 -4 -16 -2 -20 8 -17 22 7 33 106 14 134 -23 36 -107 74 -120 55z"/>
<path d="M4044 3886 c-6 -17 2 -36 17 -36 12 0 12 37 -1 45 -6 3 -13 -1 -16
-9z"/>
<path d="M2155 3880 c-9 -15 4 -30 20 -23 8 3 15 9 15 13 0 12 -29 20 -35 10z"/>
<path d="M7797 3883 c-11 -10 -8 -43 3 -43 6 0 10 11 10 25 0 26 -2 29 -13 18z"/>
<path d="M4078 3794 c-11 -10 -9 -80 3 -134 21 -92 30 -168 33 -281 3 -87 8
-122 20 -141 11 -17 15 -35 11 -51 -5 -19 2 -41 29 -84 20 -32 36 -66 36 -76
0 -10 6 -30 14 -45 16 -33 29 -96 27 -139 0 -18 4 -35 9 -38 6 -3 10 -19 10
-36 0 -16 11 -51 25 -77 14 -27 34 -73 44 -103 12 -32 26 -55 36 -57 12 -3 15
-10 11 -25 -3 -11 1 -35 8 -51 8 -17 17 -38 20 -46 3 -8 15 -28 26 -45 11 -16
28 -46 39 -65 23 -42 57 -75 64 -63 6 9 -48 127 -69 154 -6 8 -14 27 -18 42
-4 16 -18 46 -31 68 -14 21 -25 49 -25 62 0 13 -9 49 -19 79 -19 56 -22 63
-58 133 -16 31 -20 60 -21 126 0 85 -15 154 -37 174 -6 6 -17 25 -23 44 -7 19
-23 48 -36 65 -27 36 -34 75 -45 271 -4 77 -13 156 -20 175 -36 97 -50 137
-53 153 -2 11 -6 15 -10 11z"/>
<path d="M7776 3771 c-4 -5 -1 -22 4 -37 6 -16 9 -38 6 -50 -4 -13 0 -27 9
-34 13 -11 15 -5 15 43 0 30 -3 62 -6 71 -7 18 -20 21 -28 7z"/>
<path d="M1745 3681 c-16 -31 -7 -48 20 -37 17 6 21 66 5 66 -5 0 -16 -13 -25
-29z"/>
<path d="M1872 3688 c3 -7 15 -15 27 -16 16 -3 22 1 19 10 -3 7 -15 15 -27 16
-16 3 -22 -1 -19 -10z"/>
<path d="M2896 3684 c-7 -18 0 -34 15 -34 5 0 9 11 9 25 0 28 -15 34 -24 9z"/>
<path d="M2899 3594 c-11 -30 -3 -46 11 -24 10 16 13 50 5 50 -3 0 -10 -12
-16 -26z"/>
<path d="M7790 3541 c0 -19 17 -38 25 -29 7 7 -7 48 -16 48 -5 0 -9 -9 -9 -19z"/>
<path d="M2929 3452 c-3 -20 -2 -29 4 -23 5 5 7 19 5 32 -3 20 -5 19 -9 -9z"/>
<path d="M3860 3271 c0 -5 -11 -19 -25 -32 -26 -25 -31 -39 -15 -39 11 0 69
60 70 73 0 4 -7 7 -15 7 -8 0 -15 -4 -15 -9z"/>
<path d="M8216 2881 c-3 -27 -15 -59 -25 -72 -10 -13 -16 -29 -14 -35 2 -7 -8
-16 -22 -21 -26 -8 -27 -11 -29 -96 -1 -48 1 -86 4 -85 3 2 28 13 55 26 40 18
56 33 78 73 16 28 26 57 23 66 -4 9 -11 47 -16 85 -9 63 -26 108 -41 108 -4 0
-9 -22 -13 -49z"/>
<path d="M710 2731 c0 -16 -8 -37 -17 -47 -29 -28 -60 -196 -38 -202 6 -1 11
21 13 50 2 33 9 56 18 61 8 4 14 20 14 35 1 15 7 38 15 52 17 29 20 80 5 80
-5 0 -10 -13 -10 -29z"/>
<path d="M8311 2620 c-1 -8 -7 -26 -14 -40 -15 -29 -34 -98 -41 -152 -3 -28
-1 -40 12 -48 10 -6 12 -10 4 -10 -18 0 -35 -49 -33 -93 2 -28 -3 -45 -19 -62
-26 -28 -22 -63 10 -83 27 -17 43 -6 36 24 -5 17 -1 26 14 34 11 6 20 19 20
30 0 11 12 30 26 43 22 21 24 26 13 50 -9 21 -10 33 -1 50 11 21 10 117 -1
147 -3 8 -10 40 -15 70 -5 30 -10 48 -11 40z"/>
<path d="M4740 2555 c-37 -27 -45 -48 -20 -53 17 -3 63 53 58 69 -2 5 -19 -2
-38 -16z"/>
<path d="M620 2420 c0 -16 5 -30 10 -30 6 0 10 14 10 30 0 17 -4 30 -10 30 -5
0 -10 -13 -10 -30z"/>
<path d="M590 2270 c0 -11 5 -20 10 -20 6 0 10 9 10 20 0 11 -4 20 -10 20 -5
0 -10 -9 -10 -20z"/>
<path d="M4550 2196 c0 -14 5 -28 10 -31 6 -3 10 5 10 19 0 14 -4 28 -10 31
-6 3 -10 -5 -10 -19z"/>
<path d="M704 2195 c-10 -5 -30 -18 -43 -27 -36 -27 -68 -23 -75 8 -9 35 -14
29 -79 -97 -84 -163 -100 -237 -82 -368 7 -45 5 -55 -9 -63 -20 -11 -21 -48
-1 -48 9 0 15 9 15 21 0 11 9 28 20 37 13 11 25 44 35 96 9 43 35 116 57 163
22 46 43 104 46 128 8 71 22 78 154 71 185 -9 297 -21 310 -34 7 -7 21 -12 33
-12 11 0 33 -7 49 -15 15 -8 42 -15 58 -15 29 0 70 -14 131 -46 16 -8 45 -14
64 -14 50 0 106 -36 101 -65 -5 -22 2 -28 84 -78 15 -10 38 -17 52 -17 14 0
28 -4 31 -10 3 -5 18 -10 33 -10 15 0 40 -7 56 -15 15 -8 36 -15 45 -15 18 -1
71 -44 71 -58 0 -5 -14 -12 -32 -16 -39 -8 -30 -19 14 -18 42 1 76 -21 93 -61
19 -43 121 -153 127 -135 3 7 -6 33 -19 57 -12 24 -23 51 -23 60 0 26 -127
181 -148 181 -7 0 -23 10 -36 23 -13 13 -63 36 -111 52 -69 22 -101 39 -148
79 -105 90 -130 105 -169 106 -22 0 -64 14 -104 35 -37 19 -79 35 -93 35 -15
0 -32 5 -37 10 -15 15 -112 37 -164 38 -72 2 -144 13 -159 25 -19 16 -125 25
-147 12z"/>
<path d="M8356 2139 c-3 -17 -6 -41 -6 -53 0 -12 -13 -37 -29 -57 -21 -25 -29
-45 -28 -72 1 -28 -6 -44 -27 -66 -28 -30 -28 -51 1 -51 12 0 14 -7 10 -36 -5
-29 -3 -35 11 -32 19 4 53 66 47 85 -6 18 12 26 19 8 3 -8 10 -15 16 -15 6 0
10 57 10 160 0 150 -9 201 -24 129z"/>
<path d="M8153 2104 c-3 -8 -1 -20 6 -27 14 -14 47 15 37 32 -10 16 -36 13
-43 -5z"/>
<path d="M680 2051 l-25 -7 25 -7 c14 -4 70 -7 125 -7 60 -1 116 -7 140 -15
22 -8 63 -15 91 -15 32 0 56 -5 63 -14 13 -15 65 -30 165 -48 33 -5 77 -21 98
-34 38 -24 92 -32 103 -15 3 6 -10 13 -30 17 -19 3 -38 10 -41 15 -3 5 -14 9
-25 9 -10 0 -27 9 -36 20 -12 14 -30 20 -58 20 -23 0 -46 5 -51 10 -6 6 -34
13 -62 17 -29 3 -52 9 -52 14 0 4 -19 10 -42 14 -24 4 -62 13 -86 21 -45 15
-255 18 -302 5z"/>
<path d="M651 1880 c-4 -3 -13 -15 -20 -27 -12 -24 -3 -31 16 -12 16 16 157
16 176 1 8 -7 55 -16 104 -19 48 -3 100 -12 115 -19 15 -8 56 -14 92 -14 36 0
68 -4 71 -10 3 -5 24 -10 46 -10 24 0 38 4 34 10 -3 6 -18 10 -33 10 -15 0
-36 7 -46 15 -11 8 -34 15 -52 15 -17 0 -54 6 -80 14 -95 28 -400 61 -423 46z"/>
<path d="M4509 1832 c-21 -18 -28 -31 -21 -36 6 -3 16 3 22 14 9 17 21 20 70
20 58 0 58 0 65 -32 4 -18 14 -42 21 -53 23 -32 16 -60 -26 -103 -34 -37 -45
-42 -83 -42 -46 0 -69 16 -81 58 -4 12 -12 22 -17 22 -5 0 -9 10 -10 23 -1 15
-4 11 -9 -13 -13 -52 22 -103 87 -129 29 -12 38 -11 76 7 25 12 55 37 71 61
24 34 27 46 21 83 -11 72 -25 118 -36 118 -6 0 -17 7 -25 15 -26 26 -89 19
-125 -13z"/>
<path d="M652 1794 c-28 -13 -53 -28 -57 -33 -3 -6 -17 -11 -31 -11 -13 0 -24
-4 -24 -9 0 -5 -3 -16 -6 -25 -8 -22 40 -22 91 0 35 14 41 14 69 -1 26 -14 38
-15 71 -6 22 6 56 11 75 11 61 0 305 -56 350 -80 12 -6 33 -9 46 -6 13 4 40 0
60 -9 20 -8 51 -15 68 -15 17 -1 42 -7 56 -15 14 -8 36 -14 50 -15 20 0 206
-71 262 -101 10 -5 24 -6 32 -3 8 3 32 -6 54 -20 40 -25 40 -25 45 -4 5 17 11
20 37 14 23 -4 30 -2 27 7 -2 6 -18 12 -35 12 -18 0 -32 3 -32 7 0 4 -16 14
-35 22 -19 8 -35 19 -35 24 0 13 -47 32 -81 32 -16 0 -46 9 -66 20 -21 11 -46
20 -55 20 -10 0 -18 5 -18 10 0 6 -17 10 -37 10 -21 0 -51 7 -67 15 -15 8 -40
15 -55 15 -15 0 -36 7 -47 15 -10 8 -30 15 -44 15 -14 0 -34 6 -45 14 -11 7
-45 17 -75 21 -30 4 -60 11 -65 16 -6 4 -42 11 -80 15 -39 4 -74 10 -80 14 -5
4 -53 11 -105 15 -52 4 -99 11 -105 15 -24 18 -66 16 -113 -6z"/>
<path d="M1610 1779 c0 -16 26 -36 87 -64 59 -28 93 -32 93 -10 0 8 -7 15 -16
15 -19 0 -122 48 -129 61 -9 13 -35 11 -35 -2z"/>
<path d="M8371 1766 c-8 -10 -12 -37 -9 -73 3 -54 1 -58 -24 -71 -32 -15 -37
-42 -8 -42 11 0 20 -7 20 -15 0 -8 -9 -15 -20 -15 -11 0 -20 -5 -20 -10 0 -6
-12 -28 -26 -50 -39 -59 -15 -103 55 -97 25 2 34 11 56 52 30 55 34 112 18
254 -8 75 -20 94 -42 67z"/>
<path d="M1300 1751 c0 -5 16 -12 35 -15 19 -4 47 -13 62 -21 15 -8 42 -15 58
-15 17 0 39 -7 49 -15 11 -8 30 -15 43 -15 13 0 26 -7 29 -15 7 -17 79 -21
104 -5 10 6 -1 11 -38 16 -29 4 -55 10 -57 14 -10 16 -91 48 -137 55 -26 3
-50 10 -53 16 -8 12 -95 12 -95 0z"/>
<path d="M4575 1740 c-3 -5 3 -10 15 -10 12 0 18 5 15 10 -3 6 -10 10 -15 10
-5 0 -12 -4 -15 -10z"/>
<path d="M4530 1716 c0 -27 14 -41 30 -31 8 5 7 11 0 20 -7 8 -9 19 -5 25 3 5
-1 10 -9 10 -10 0 -16 -9 -16 -24z"/>
<path d="M584 1642 c-46 -7 -64 -13 -64 -22 0 -9 219 -3 230 7 20 18 -85 27
-166 15z"/>
<path d="M345 1499 c-4 -6 -5 -13 -2 -16 7 -7 27 6 27 18 0 12 -17 12 -25 -2z"/>
<path d="M586 1503 c-4 -4 -34 -8 -66 -9 -57 -1 -110 -22 -110 -44 0 -13 27
-13 32 0 2 5 58 13 126 16 67 4 122 10 122 14 0 7 -61 30 -82 30 -8 0 -18 -3
-22 -7z"/>
<path d="M316 1434 c-8 -29 1 -64 15 -64 5 0 9 20 9 45 0 49 -14 60 -24 19z"/>
<path d="M8210 1379 c0 -11 -5 -29 -10 -40 -9 -15 -7 -21 6 -26 10 -4 22 0 28
8 6 9 19 18 30 22 11 5 16 13 12 23 -3 9 -6 20 -6 25 0 5 -13 9 -30 9 -24 0
-30 -4 -30 -21z"/>
<path d="M8295 1360 c-3 -5 3 -10 14 -10 12 0 21 5 21 10 0 6 -6 10 -14 10 -8
0 -18 -4 -21 -10z"/>
<path d="M8366 1362 c-3 -5 -6 -53 -8 -107 -2 -81 -5 -99 -20 -109 -10 -6 -18
-17 -18 -24 0 -7 -4 -11 -10 -7 -5 3 -7 11 -4 18 9 25 -32 50 -69 43 -19 -4
-42 -4 -51 0 -14 5 -14 8 -1 27 22 31 19 37 -19 37 -18 0 -39 7 -46 15 -7 8
-27 15 -45 15 -20 0 -35 -6 -39 -15 -3 -8 -15 -15 -26 -15 -12 0 -51 -14 -88
-32 -52 -25 -82 -33 -137 -35 -38 -2 -104 -8 -145 -13 -167 -23 -229 -31 -315
-38 -49 -5 -101 -14 -115 -22 -14 -7 -32 -17 -40 -22 -8 -4 -25 -12 -37 -17
-11 -6 -24 -14 -27 -20 -7 -11 -140 -101 -150 -101 -4 0 -28 -16 -53 -35 -25
-19 -52 -35 -58 -35 -18 0 -75 -67 -74 -88 0 -14 3 -13 16 6 8 12 24 22 34 22
10 0 20 4 24 9 3 6 27 20 53 32 26 12 61 28 77 37 17 9 37 19 45 22 8 4 31 14
50 23 19 9 54 20 78 23 36 6 40 8 26 19 -16 11 -15 14 6 43 l24 32 106 0 c59
0 120 5 136 10 46 16 227 33 361 34 90 0 124 4 127 13 3 7 14 13 25 13 10 0
21 9 24 20 4 16 14 20 50 20 25 0 48 -4 52 -9 3 -5 18 -12 35 -16 47 -10 163
-71 189 -99 20 -21 34 -26 72 -26 l47 0 -4 58 c-2 31 -6 101 -8 154 -3 78 -8
103 -24 123 -11 14 -23 22 -26 17z"/>
<path d="M242 1290 c-21 -33 -13 -45 13 -20 14 13 25 27 25 32 0 16 -25 8 -38
-12z"/>
<path d="M465 1209 c-27 -5 -61 -10 -74 -11 -31 -1 -92 -26 -106 -43 -5 -8
-21 -15 -35 -17 -14 -2 -26 -11 -28 -20 -4 -22 21 -24 42 -3 8 8 21 12 30 9 8
-3 35 3 60 14 43 19 45 20 61 2 15 -16 14 -26 -11 -126 -14 -60 -32 -121 -40
-136 -8 -15 -14 -45 -14 -66 0 -22 -6 -45 -14 -51 -8 -7 -18 -31 -22 -54 -7
-46 -48 -142 -64 -152 -6 -3 -10 -21 -10 -38 0 -18 -7 -41 -15 -51 -8 -11 -15
-28 -15 -38 0 -9 -9 -35 -21 -57 -13 -25 -22 -64 -24 -104 -1 -36 -6 -71 -11
-78 -11 -18 -25 -97 -25 -133 0 -16 -4 -36 -10 -43 -9 -10 -3 -13 29 -13 l40
0 22 73 c12 39 26 81 31 92 5 11 13 38 18 60 19 78 35 131 58 200 29 84 52
161 59 195 3 14 10 34 14 45 26 58 43 117 50 175 5 36 14 90 20 120 7 30 19
87 27 127 22 107 25 110 114 94 41 -7 103 -17 138 -22 36 -6 73 -15 82 -20 10
-5 32 -9 49 -9 17 0 40 -5 51 -11 11 -6 41 -14 67 -19 26 -4 61 -13 77 -18 17
-6 57 -18 90 -27 33 -9 78 -22 100 -30 22 -7 67 -20 100 -29 33 -9 80 -23 105
-31 25 -8 54 -15 64 -15 11 0 56 -13 100 -29 45 -15 108 -36 141 -46 110 -33
187 -71 230 -113 40 -40 53 -91 50 -187 -1 -38 -6 -184 -10 -323 l-7 -252 34
0 35 0 0 87 c1 49 4 157 9 242 6 130 10 157 26 173 21 21 59 23 96 4 15 -7 41
-16 59 -19 17 -3 51 -15 75 -26 47 -21 122 -35 271 -51 54 -5 110 -16 125 -24
43 -22 188 -37 297 -30 132 8 178 6 206 -12 7 -5 25 -10 39 -11 31 -3 145 -19
230 -32 36 -5 110 -12 165 -16 55 -3 132 -10 170 -15 39 -5 113 -15 165 -21
130 -14 212 -26 230 -32 31 -11 247 -77 315 -96 127 -36 179 -49 280 -69 55
-11 118 -27 140 -35 31 -13 82 -16 229 -17 104 0 187 2 185 5 -3 2 -36 9 -74
14 -39 5 -101 17 -140 26 -38 8 -92 20 -120 26 -27 6 -54 14 -60 19 -5 4 -34
11 -62 15 -29 4 -55 11 -59 16 -3 5 -22 9 -42 9 -20 1 -55 7 -77 15 -22 8 -53
15 -70 15 -16 0 -41 7 -55 15 -14 8 -36 14 -50 15 -14 0 -38 7 -54 15 -15 8
-36 15 -45 15 -9 0 -29 7 -45 15 -15 8 -39 15 -51 15 -13 0 -36 5 -52 12 -73
30 -245 59 -503 83 -463 43 -562 56 -584 74 -8 7 -90 10 -234 10 -189 -1 -225
1 -254 16 -22 11 -68 18 -143 22 -60 3 -118 9 -127 14 -9 5 -36 9 -60 9 -24 1
-54 7 -68 15 -14 8 -39 14 -56 15 -16 0 -39 7 -50 15 -10 8 -29 15 -41 15 -35
0 -99 38 -111 66 -11 23 -10 24 7 14 23 -12 81 -14 81 -2 -1 4 -21 20 -45 35
-33 21 -45 35 -45 52 0 13 -4 27 -10 30 -5 3 -10 16 -10 29 0 35 -34 63 -92
76 -29 7 -57 18 -63 25 -12 14 -135 75 -152 75 -8 0 -21 4 -31 10 -26 15 -100
40 -162 55 -30 8 -91 24 -135 35 -44 12 -89 24 -100 26 -11 2 -56 14 -100 28
-105 32 -338 77 -505 96 -140 17 -239 20 -295 9z"/>
<path d="M8032 1089 c2 -8 21 -15 41 -17 19 -2 41 -10 47 -18 13 -15 80 -20
80 -5 0 11 -25 21 -55 21 -13 0 -25 5 -27 11 -2 5 -23 13 -47 16 -35 5 -43 3
-39 -8z"/>
<path d="M6145 1063 c-31 -8 -85 -65 -85 -91 0 -34 28 -71 71 -93 44 -22 68
-24 104 -7 35 16 32 38 -6 38 -16 0 -52 7 -80 16 -43 14 -49 20 -49 43 0 15 5
32 12 39 17 17 66 14 113 -6 39 -17 85 -19 85 -3 0 4 -20 22 -44 39 -43 31
-72 37 -121 25z"/>
<path d="M7823 1051 c-16 -16 -33 -18 -148 -16 -135 2 -175 -1 -175 -16 0 -10
299 -9 305 1 3 4 21 11 40 14 21 4 35 13 35 21 0 21 -36 19 -57 -4z"/>
<path d="M8215 1020 c3 -5 13 -10 21 -10 8 0 14 5 14 10 0 6 -9 10 -21 10 -11
0 -17 -4 -14 -10z"/>
<path d="M7268 1003 c-32 -2 -58 -8 -58 -12 0 -12 75 -19 165 -15 86 4 118 11
110 25 -6 9 -94 9 -217 2z"/>
<path d="M8310 966 c0 -12 11 -16 41 -16 52 0 48 24 -4 28 -28 2 -37 -1 -37
-12z"/>
<path d="M7773 953 c-62 -11 14 -33 113 -33 24 0 44 -5 46 -12 3 -8 33 -14 79
-16 41 -3 77 -9 80 -14 4 -6 27 -13 53 -15 38 -5 46 -3 46 11 0 11 -9 16 -33
16 -18 0 -42 7 -53 15 -11 8 -41 14 -71 15 -29 0 -72 6 -95 14 -48 15 -131 25
-165 19z"/>
<path d="M8436 941 c-3 -5 -6 -38 -7 -75 -1 -36 -5 -66 -10 -66 -5 0 -9 -8 -9
-17 0 -15 4 -13 20 7 11 14 23 36 26 50 3 14 10 35 16 46 16 33 -18 85 -36 55z"/>
<path d="M2212 919 c2 -7 32 -27 66 -45 49 -26 74 -34 115 -34 30 0 76 -6 103
-14 27 -8 112 -17 189 -20 77 -3 156 -11 175 -16 19 -6 111 -10 205 -10 93 0
188 -5 210 -11 22 -6 103 -17 180 -23 77 -7 147 -16 156 -20 8 -4 119 -11 245
-16 252 -11 381 -22 410 -38 10 -5 38 -13 61 -17 24 -4 45 -11 49 -16 3 -5 14
-9 25 -9 18 0 89 -27 130 -50 9 -5 33 -12 53 -15 20 -4 39 -11 42 -16 3 -5 17
-9 32 -9 15 0 39 -6 53 -14 14 -7 48 -17 75 -21 27 -4 54 -10 59 -15 6 -4 30
-10 55 -14 24 -4 49 -11 55 -15 5 -5 35 -11 65 -15 30 -4 59 -11 65 -15 5 -5
36 -11 68 -15 32 -3 65 -11 75 -16 9 -5 44 -14 77 -19 33 -5 89 -17 125 -26
36 -9 85 -19 110 -24 25 -4 61 -12 80 -18 42 -14 135 -30 244 -43 44 -6 84
-14 90 -20 5 -5 25 -10 43 -10 18 0 52 -6 75 -14 24 -8 76 -17 116 -21 l72 -6
18 30 c19 35 25 37 42 16 9 -11 35 -15 102 -15 110 0 108 16 -2 22 -65 4 -85
9 -104 27 -24 22 -50 21 -60 -5 -7 -18 -63 -18 -96 1 -14 8 -42 14 -62 15 -20
0 -48 4 -63 10 -30 11 -131 31 -160 31 -33 0 -259 47 -356 74 -50 14 -121 28
-158 32 -36 3 -103 18 -148 35 -46 16 -87 27 -91 24 -9 -5 -52 6 -108 29 -17
7 -57 16 -90 20 -32 4 -70 13 -84 20 -14 7 -45 16 -70 19 -47 7 -82 18 -137
42 -17 8 -40 14 -51 14 -12 0 -23 4 -26 9 -3 5 -30 14 -58 21 -29 6 -65 20
-80 31 -15 10 -40 19 -55 19 -16 0 -47 9 -68 21 -28 14 -63 21 -115 23 -220 9
-365 18 -450 27 -52 6 -124 12 -160 14 -117 7 -194 15 -245 25 -53 11 -141 16
-455 29 -107 5 -242 14 -299 21 -57 7 -119 10 -137 7 -19 -3 -36 -1 -39 4 -4
5 -20 9 -36 9 -16 0 -46 7 -66 15 -42 18 -86 20 -81 4z"/>
<path d="M2096 882 c-3 -5 32 -25 77 -46 45 -20 93 -43 107 -50 76 -40 428
-85 675 -86 61 0 187 -10 280 -21 94 -11 223 -24 288 -30 65 -5 127 -14 137
-19 10 -6 94 -10 187 -11 205 0 410 -24 437 -50 6 -5 21 -9 35 -9 15 0 39 -7
55 -15 15 -8 36 -15 45 -15 9 0 27 -6 41 -13 31 -16 102 -42 155 -57 95 -27
228 -61 310 -80 28 -6 59 -15 70 -20 11 -5 40 -11 65 -15 25 -3 59 -10 75 -15
46 -13 220 -52 324 -71 30 -5 59 -13 65 -16 11 -8 127 -28 240 -43 38 -5 76
-12 85 -16 23 -9 133 -33 222 -48 41 -7 81 -16 88 -20 14 -9 67 2 57 11 -12
12 -81 33 -131 39 -27 4 -58 11 -69 16 -10 6 -42 14 -70 19 -183 31 -225 39
-256 48 -19 6 -50 11 -68 11 -18 0 -42 5 -52 10 -10 6 -45 14 -77 20 -89 14
-166 31 -188 42 -12 5 -45 13 -75 18 -146 25 -187 33 -205 41 -11 5 -40 13
-65 19 -62 12 -152 36 -297 77 -55 15 -114 35 -158 54 -38 16 -110 41 -145 49
-94 24 -127 32 -155 42 -16 6 -122 14 -235 18 -113 4 -212 10 -220 14 -8 3
-76 10 -150 16 -155 10 -294 27 -363 41 -26 6 -166 14 -311 19 -145 4 -269 10
-275 14 -6 4 -57 11 -113 16 -145 13 -226 29 -281 56 -27 13 -61 24 -76 24
-14 0 -34 9 -44 20 -18 21 -33 25 -41 12z"/>
<path d="M7680 873 c-21 -15 -42 -17 -137 -15 -77 2 -119 -1 -135 -9 -26 -14
-81 -24 -241 -41 -138 -15 -139 -34 -1 -30 54 1 103 7 108 12 6 6 32 10 58 10
27 0 65 7 85 15 49 21 193 21 193 0 0 -18 2 -17 -200 -47 -47 -7 -92 -17 -100
-23 -8 -5 -60 -13 -115 -16 -100 -7 -185 -23 -195 -38 -3 -5 -34 -30 -70 -57
-36 -27 -83 -68 -104 -91 -32 -36 -35 -44 -22 -49 11 -4 34 8 66 35 27 22 53
41 59 41 6 0 15 8 20 18 8 14 68 38 153 59 13 3 70 11 128 19 58 8 132 20 165
29 33 8 97 21 142 29 46 8 89 21 98 29 8 8 40 23 71 33 54 17 58 17 103 -1 25
-10 62 -18 81 -17 19 1 59 -5 87 -14 29 -8 64 -12 78 -8 31 8 105 -18 129 -45
9 -10 20 -36 23 -56 5 -30 2 -41 -13 -52 -16 -12 -17 -15 -4 -23 8 -5 24 -10
35 -10 11 0 29 -7 39 -15 11 -8 28 -15 39 -15 22 0 56 -37 57 -62 0 -10 4 -18
9 -18 5 0 13 -9 16 -20 3 -11 11 -20 16 -20 13 0 11 44 -3 58 -6 6 -13 48 -16
94 -4 62 -10 89 -25 110 -18 24 -19 31 -8 54 10 23 9 30 -9 49 -19 20 -31 23
-95 22 -40 -1 -79 4 -86 10 -20 15 -100 33 -199 44 -47 5 -94 13 -106 18 -11
5 -50 12 -85 16 -53 5 -68 3 -89 -12z m628 -212 c26 -16 65 -98 58 -118 -7
-18 -36 -17 -36 2 0 9 -9 15 -21 15 -19 0 -69 41 -69 57 0 9 42 53 49 53 3 0
12 -4 19 -9z"/>
<path d="M6975 837 c-22 -11 -41 -25 -43 -29 -2 -4 -9 -8 -16 -8 -7 0 -23 -9
-36 -20 -13 -11 -29 -20 -37 -20 -7 0 -13 -4 -13 -10 0 -13 37 -13 45 0 3 5
31 22 61 36 30 14 54 29 54 34 0 5 9 10 20 12 20 3 30 21 13 25 -4 1 -26 -8
-48 -20z"/>
<path d="M8210 851 c0 -11 80 -22 108 -14 12 3 19 9 16 14 -7 12 -124 12 -124
0z"/>
<path d="M6732 716 c-15 -21 -25 -54 -28 -87 -2 -29 -7 -63 -10 -74 -6 -19 -6
-19 13 -2 12 10 24 36 27 59 5 29 18 52 47 81 22 22 38 41 37 42 -2 2 -16 5
-33 9 -26 5 -33 2 -53 -28z"/>
<path d="M2220 610 c0 -5 17 -12 38 -15 20 -4 51 -13 69 -21 17 -8 44 -14 60
-14 15 0 46 -7 68 -15 22 -8 75 -14 118 -15 73 0 145 -13 247 -46 34 -10 99
-13 260 -12 183 1 219 -1 245 -15 20 -12 54 -17 105 -17 41 0 91 -5 110 -10
19 -6 96 -15 170 -20 277 -20 514 -51 595 -78 17 -5 55 -17 85 -25 147 -42
177 -51 207 -64 17 -7 41 -13 53 -13 12 0 45 -7 74 -16 97 -30 118 -36 169
-44 55 -9 118 -24 177 -43 19 -6 53 -14 75 -18 44 -8 103 -23 179 -45 26 -8
63 -14 80 -14 17 0 40 -6 51 -14 23 -15 93 -23 275 -32 89 -4 121 -2 110 5 -8
6 -36 11 -61 11 -25 0 -59 5 -76 10 -16 6 -67 17 -114 25 -145 24 -255 47
-429 90 -36 9 -87 21 -115 26 -27 5 -59 14 -70 19 -11 4 -42 11 -69 14 -27 3
-54 10 -60 15 -6 5 -35 12 -63 16 -29 4 -55 10 -58 15 -3 4 -26 11 -51 15 -26
4 -54 10 -63 15 -9 5 -61 22 -116 39 -225 67 -270 78 -380 91 -38 4 -108 12
-155 19 -47 6 -148 15 -225 21 -245 18 -349 29 -390 39 -96 25 -168 31 -305
25 -126 -5 -157 -2 -240 16 -52 12 -147 25 -210 29 -64 5 -125 13 -137 19 -12
7 -46 12 -76 12 -36 0 -59 5 -67 15 -14 16 -90 21 -90 5z"/>
<path d="M8134 459 c-2 -4 9 -9 24 -12 15 -3 61 -21 103 -40 71 -33 77 -39
104 -91 16 -31 32 -56 36 -56 16 0 20 41 8 78 -18 58 -76 108 -141 121 -57 12
-126 12 -134 0z"/>
<path d="M6333 353 c-22 -8 -14 -23 11 -23 13 0 29 -7 36 -15 14 -17 95 -21
105 -6 8 13 -30 32 -49 25 -8 -3 -25 1 -38 10 -22 16 -42 19 -65 9z"/>
<path d="M8316 225 c17 -26 48 -33 60 -13 9 14 -23 38 -53 38 -23 0 -23 -1 -7
-25z"/>
<path d="M7614 224 c-56 -6 -115 -16 -131 -22 -17 -5 -41 -8 -56 -5 -14 3 -38
-2 -54 -10 -15 -8 -57 -20 -92 -27 -58 -10 -128 -41 -218 -95 -68 -41 -15 -48
80 -11 34 13 98 31 142 41 44 9 106 23 137 31 32 8 80 14 106 14 27 0 74 5
103 11 51 10 198 12 284 5 22 -2 80 -7 130 -11 49 -4 113 -16 141 -25 55 -19
129 -68 151 -100 11 -15 26 -20 59 -20 24 0 44 3 44 6 0 4 -12 28 -26 54 -24
44 -35 53 -128 98 -120 59 -125 60 -263 68 -191 10 -306 10 -409 -2z"/>
<path d="M6538 208 c17 -8 26 -8 34 0 9 9 4 12 -22 11 -33 0 -34 -1 -12 -11z"/>
<path d="M8390 139 c0 -11 5 -17 10 -14 6 3 10 13 10 21 0 8 -4 14 -10 14 -5
0 -10 -9 -10 -21z"/>
<path d="M6204 69 c-4 -7 1 -16 10 -21 25 -14 19 -28 -14 -28 -16 0 -30 -4
-30 -10 0 -15 162 -12 183 4 26 20 21 26 -26 26 -30 0 -48 6 -60 20 -18 22
-52 27 -63 9z"/>
</g>
</svg>
